<svg id="Layer_1" data-name="Layer 1" xmlns="http://www.w3.org/2000/svg" viewBox="0 0 162 45"><defs><style>.cls-1{fill:#fff;}</style></defs><title>Alleyway_RGB_Black</title><path d="M68.69,22.5a1.13,1.13,0,0,0-1.06.73L63,35.3h0.78A1.26,1.26,0,0,0,65,34.46l1-2.75h5.43l1,2.77a1.26,1.26,0,0,0,1.18.82h0.79L69.74,23.23A1.13,1.13,0,0,0,68.69,22.5Zm-2.24,7.86,2-5.45a4.8,4.8,0,0,0,.2-0.86h0a5.23,5.23,0,0,0,.2.86l2,5.45H66.45Z" transform="translate(-9 -13.5)"/><path d="M122.41,22.91l-2.79,5.38a4.68,4.68,0,0,0-.34.79h0q-0.26-.68-0.31-0.79l-2.66-5.37a0.75,0.75,0,0,0-.67-0.42h-1.24l4,7.94a0.75,0.75,0,0,1,.08.34v3.77a0.75,0.75,0,0,0,1.5,0v-3.8a0.75,0.75,0,0,1,.09-0.35l4.14-7.91h-1.13A0.75,0.75,0,0,0,122.41,22.91Z" transform="translate(-9 -13.5)"/><path d="M142.65,23.21l-2.43,9.15a7.13,7.13,0,0,0-.24,1.23h0a7.34,7.34,0,0,0-.21-1.2l-2.52-9.19a0.95,0.95,0,0,0-1.83,0l-2.63,9.13a7.6,7.6,0,0,0-.28,1.29h0a6.45,6.45,0,0,0-.21-1.29l-2.53-9.12a1,1,0,0,0-.91-0.69h-0.93l3.55,12.12a1,1,0,0,0,.91.68h0.31a1,1,0,0,0,.91-0.69L136,25.93a6.62,6.62,0,0,0,.23-1.29h0a5.85,5.85,0,0,0,.2,1.3l2.44,8.66a1,1,0,0,0,.91.69h0.32a1,1,0,0,0,.91-0.69l3.42-12.11h-0.9A1,1,0,0,0,142.65,23.21Z" transform="translate(-9 -13.5)"/><path d="M153.2,22.5a1.13,1.13,0,0,0-1.06.73L147.51,35.3h0.85a1.17,1.17,0,0,0,1.1-.78l1-2.81h5.43L157,34.55a1.17,1.17,0,0,0,1.09.75h0.85l-4.65-12.08A1.13,1.13,0,0,0,153.2,22.5ZM151,30.36l2-5.45a4.84,4.84,0,0,0,.2-0.86h0a5.22,5.22,0,0,0,.2.86l2,5.45H151Z" transform="translate(-9 -13.5)"/><path d="M169.87,22.5a0.75,0.75,0,0,0-.67.4l-2.79,5.38a4.68,4.68,0,0,0-.34.79h0q-0.26-.68-0.31-0.79l-2.66-5.37a0.75,0.75,0,0,0-.67-0.42h-1.24l4,7.94a0.75,0.75,0,0,1,.08.34v3.77a0.75,0.75,0,0,0,1.5,0v-3.8a0.75,0.75,0,0,1,.09-0.35L171,22.5h-1.13Z" transform="translate(-9 -13.5)"/><path d="M97.43,34H97.06v0H93V23.25a0.75,0.75,0,1,0-1.5,0v12h6A0.67,0.67,0,0,0,97.43,34Z" transform="translate(-9 -13.5)"/><path d="M110,34h-5.15V29.36h4.61a0.61,0.61,0,0,0,.5-0.2,0.68,0.68,0,0,0,.17-0.44,0.69,0.69,0,0,0-.16-0.44,0.6,0.6,0,0,0-.5-0.2h-4.61V23.8h4.9a0.59,0.59,0,0,0,.49-0.2,0.7,0.7,0,0,0,.16-0.45,0.69,0.69,0,0,0-.16-0.44,0.58,0.58,0,0,0-.44-0.19h-6.46V35.3h6.72a0.57,0.57,0,0,0,.43-0.19,0.71,0.71,0,0,0,.16-0.45,0.69,0.69,0,0,0-.16-0.44A0.59,0.59,0,0,0,110,34Z" transform="translate(-9 -13.5)"/><path d="M85.53,34H85.17v0h-4.1V23.25a0.75,0.75,0,1,0-1.5,0v12h6A0.67,0.67,0,0,0,85.53,34Z" transform="translate(-9 -13.5)"/><path d="M68.42,40.11a3.88,3.88,0,0,0-2.92,1.21,4.42,4.42,0,0,0-1.15,3.17,4.12,4.12,0,0,0,1.06,2.93,3.62,3.62,0,0,0,2.75,1.14,5.28,5.28,0,0,0,2-.41l0.15-.06V47L70,47.18a4,4,0,0,1-1.79.39,2.64,2.64,0,0,1-2-.83,3.22,3.22,0,0,1-.8-2.3A3.47,3.47,0,0,1,66.24,42a2.79,2.79,0,0,1,2.17-.9,3.87,3.87,0,0,1,1.6.34l0.35,0.16V40.47l-0.17-.06A5.36,5.36,0,0,0,68.42,40.11Z" transform="translate(-9 -13.5)"/><path d="M76.27,40.11a3.72,3.72,0,0,0-2.9,1.19,4.49,4.49,0,0,0-1.06,3.11,4.32,4.32,0,0,0,1,3,3.56,3.56,0,0,0,2.78,1.17A3.63,3.63,0,0,0,79,47.38a4.57,4.57,0,0,0,1-3.17,4.26,4.26,0,0,0-1-3A3.49,3.49,0,0,0,76.27,40.11Zm-2.91,4.24a3.45,3.45,0,0,1,.8-2.37,2.81,2.81,0,0,1,4-.06A3.47,3.47,0,0,1,79,44.3a3.53,3.53,0,0,1-.77,2.42,2.61,2.61,0,0,1-2.07.85,2.49,2.49,0,0,1-2-.85A3.48,3.48,0,0,1,73.36,44.35Z" transform="translate(-9 -13.5)"/><polygon points="78.72 32.83 74.22 26.74 73.44 26.74 73.44 34.92 74.47 34.92 74.47 28.78 79 34.92 79.75 34.92 79.75 26.74 78.72 26.74 78.72 32.83"/><path d="M94,43.92a5.68,5.68,0,0,1-1.29-.9,1.1,1.1,0,0,1-.25-0.77,1,1,0,0,1,.37-0.82,1.6,1.6,0,0,1,1.08-.34,3.23,3.23,0,0,1,1.34.28l0.35,0.16V40.41l-0.17-.06A4.57,4.57,0,0,0,94,40.11a2.68,2.68,0,0,0-1.85.63,2,2,0,0,0-.72,1.57,2.1,2.1,0,0,0,.35,1.2,5,5,0,0,0,1.56,1.21,5.77,5.77,0,0,1,1.3.91,1.11,1.11,0,0,1,.25.77,1,1,0,0,1-.37.85,1.93,1.93,0,0,1-1.21.32,2.85,2.85,0,0,1-1.54-.49l-0.38-.24V48l0.12,0.07a3.15,3.15,0,0,0,.86.31,4.29,4.29,0,0,0,1,.13,2.74,2.74,0,0,0,1.9-.62,2.11,2.11,0,0,0,.69-1.62,2,2,0,0,0-.41-1.24A5,5,0,0,0,94,43.92Z" transform="translate(-9 -13.5)"/><path d="M103.12,45.22c0,1.6-.59,2.35-1.85,2.35s-1.92-.77-1.92-2.42v-4.9h-1v5c0,2.76,1.55,3.33,2.85,3.33s3-.6,3-3.45V40.24h-1v5Z" transform="translate(-9 -13.5)"/><polygon points="98.92 26.74 97.89 26.74 97.89 34.92 102 34.92 102 33.94 98.92 33.94 98.92 26.74"/><polygon points="102.7 27.73 104.92 27.73 104.92 34.92 105.95 34.92 105.95 27.73 108.16 27.73 108.16 26.74 102.7 26.74 102.7 27.73"/><rect x="110.34" y="26.74" width="1.03" height="8.18"/><polygon points="119.49 32.83 115 26.74 114.21 26.74 114.21 34.92 115.24 34.92 115.24 28.78 119.77 34.92 120.52 34.92 120.52 26.74 119.49 26.74 119.49 32.83"/><path d="M135.57,45.09h1.81v2.13a3.42,3.42,0,0,1-1.57.35,2.6,2.6,0,0,1-2-.83,3.94,3.94,0,0,1,.05-4.73,2.7,2.7,0,0,1,2.15-.91,4.46,4.46,0,0,1,1.93.48l0.36,0.17V40.61l-0.15-.06a5.22,5.22,0,0,0-2.06-.43,3.81,3.81,0,0,0-3,1.25A4.47,4.47,0,0,0,132,44.44a4.26,4.26,0,0,0,1,3,3.52,3.52,0,0,0,2.72,1.15,5.2,5.2,0,0,0,2.57-.7l0.13-.07V44.1h-2.84v1Z" transform="translate(-9 -13.5)"/><polygon points="131.23 36.25 132.17 36.25 133.28 33.21 132.19 33.21 131.23 36.25"/><polygon points="141.27 26.74 140.24 26.74 140.24 34.92 144.35 34.92 144.35 33.94 141.27 33.94 141.27 26.74"/><polygon points="147.67 26.74 146.64 26.74 146.64 34.92 150.75 34.92 150.75 33.94 147.67 33.94 147.67 26.74"/><path d="M165.15,41.09a3.87,3.87,0,0,1,1.6.34l0.35,0.16V40.47l-0.17-.06a5.36,5.36,0,0,0-1.78-.3,3.88,3.88,0,0,0-2.92,1.21,4.42,4.42,0,0,0-1.15,3.17,4.13,4.13,0,0,0,1.06,2.93,3.62,3.62,0,0,0,2.75,1.14,5.28,5.28,0,0,0,2-.41l0.15-.06V47l-0.36.18a4,4,0,0,1-1.79.39,2.64,2.64,0,0,1-2-.83,3.22,3.22,0,0,1-.8-2.3A3.46,3.46,0,0,1,163,42,2.79,2.79,0,0,1,165.15,41.09Z" transform="translate(-9 -13.5)"/><circle cx="22.5" cy="22.5" r="22.5"/><path class="cls-1" d="M34.54,31a0.88,0.88,0,0,0-.77-0.44A0.89,0.89,0,0,0,33,31L27.59,41.53H20.33l7.94-15.41a1.1,1.1,0,0,0,.08-0.31,1.3,1.3,0,0,0-.77-1.44l-0.33-.14L18.11,42a0.84,0.84,0,0,0,0,.86,0.89,0.89,0,0,0,.75.41h7.83L24.79,47l-0.52,1,0.25,0.1a2.79,2.79,0,0,0,.72.2,1.36,1.36,0,0,0,1.21-.72l2.21-4.3h3.22l-0.22.5a0.62,0.62,0,0,0,.06.61,0.67,0.67,0,0,0,.78.23l3.76-1.52a0.72,0.72,0,0,0,.46-0.68,0.73,0.73,0,0,0-.46-0.68l-3.75-1.52a0.67,0.67,0,0,0-.79.23,0.63,0.63,0,0,0-.06.62l0.22,0.49H29.55l4.23-8.24,7.32,14.25a1.36,1.36,0,0,0,1.21.72,2.79,2.79,0,0,0,.72-0.2l0.25-.1Z" transform="translate(-9 -13.5)"/><path class="cls-1" d="M24.15,39l0.25,0.1a2.78,2.78,0,0,0,.72.2,1.36,1.36,0,0,0,1.21-.72L33.77,24l9,17.58a1.36,1.36,0,0,0,1.21.72,2.77,2.77,0,0,0,.72-0.2L45,42,34.54,21.7a0.88,0.88,0,0,0-.77-0.44,0.89,0.89,0,0,0-.77.45L24.67,38Z" transform="translate(-9 -13.5)"/></svg>