<?xml version="1.0" encoding="utf-8"?>
<!-- Generator: Adobe Illustrator 19.1.0, SVG Export Plug-In . SVG Version: 6.00 Build 0)  -->
<svg version="1.1" id="Layer_1" xmlns="http://www.w3.org/2000/svg" xmlns:xlink="http://www.w3.org/1999/xlink" x="0px" y="0px"
	 viewBox="0 0 657.574 494.473" style="enable-background:new 0 0 657.574 494.473;" xml:space="preserve">
<style type="text/css">
	.st0{fill:#D44444;}
	.st1{fill:#FFFFFF;}
	.st2{fill:#105A9A;}
</style>
<g>
	<g>
		<g>
			<circle class="st0" cx="328.824" cy="247.317" r="231.632"/>
		</g>
	</g>
	<g>
		<g>
			<path class="st1" d="M194.346,168.431c27.123-46.078,77.215-77.086,134.44-77.086s107.32,31.008,134.443,77.086h6.985
				c-27.685-49.555-80.628-83.086-141.428-83.086c-60.797,0-113.739,33.53-141.428,83.086H194.346z"/>
		</g>
	</g>
	<g>
		<g>
			<path class="st1" d="M468.732,315.944c-25.439,51.633-78.601,87.255-139.945,87.255c-61.345,0-114.504-35.622-139.945-87.255
				h-6.703c25.843,55.087,81.779,93.255,146.648,93.255c64.872,0,120.809-38.168,146.648-93.255H468.732z"/>
		</g>
	</g>
	<g>
		<path class="st1" d="M328.787,494.473c-66.039,0-128.125-25.717-174.822-72.414c-46.697-46.697-72.414-108.784-72.414-174.822
			c0-66.039,25.717-128.125,72.414-174.822C200.662,25.717,262.748,0,328.787,0c66.038,0,128.125,25.717,174.822,72.415
			s72.414,108.783,72.414,174.822c0,66.038-25.717,128.125-72.414,174.822S394.825,494.473,328.787,494.473z M328.787,3
			c-65.237,0-126.57,25.405-172.7,71.536c-46.13,46.131-71.536,107.463-71.536,172.701s25.405,126.57,71.536,172.7
			c46.13,46.131,107.463,71.536,172.7,71.536s126.57-25.405,172.7-71.536c46.131-46.13,71.536-107.463,71.536-172.7
			s-25.405-126.57-71.536-172.701C455.357,28.405,394.024,3,328.787,3z"/>
	</g>
	<g>
		<path class="st1" d="M328.785,18.889c30.829,0,60.732,6.037,88.88,17.942c27.19,11.501,51.612,27.967,72.585,48.94
			c20.974,20.974,37.44,45.395,48.94,72.585c11.906,28.147,17.942,58.051,17.942,88.88s-6.037,60.732-17.942,88.88
			c-11.501,27.19-27.967,51.612-48.94,72.585c-20.974,20.974-45.395,37.44-72.585,48.94c-28.147,11.906-58.051,17.942-88.88,17.942
			s-60.732-6.037-88.879-17.942c-27.19-11.501-51.611-27.967-72.584-48.94c-20.973-20.974-37.439-45.395-48.94-72.585
			c-11.905-28.147-17.942-58.051-17.942-88.88s6.037-60.732,17.942-88.88c11.501-27.191,27.966-51.612,48.94-72.585
			c20.973-20.974,45.394-37.44,72.584-48.94C268.053,24.925,297.957,18.889,328.785,18.889 M328.785,11.889
			c-129.976,0-235.345,105.372-235.345,235.348S198.81,482.584,328.785,482.584s235.348-105.372,235.348-235.348
			S458.761,11.889,328.785,11.889L328.785,11.889z"/>
	</g>
	<g>
		<g>
			<path class="st1" d="M185.938,95.585c3.687-3.502,8.101-5.584,12.222-1.246c2.046,2.153,2.231,4.831,1.338,7.418
				c3.035-1.705,6.311-1.589,9.038,1.282c4.028,4.241,3.23,9.281-2.185,14.425l-9.167,8.708l-2.511-2.643l0.983-1.121
				c0.493-0.592,0.698-1.16,0.078-1.812l-14.41-15.17l-1.952,1.668l-2.635-2.773L185.938,95.585z M191.038,107.683l2.414-2.293
				c2.806-2.666,2.708-5.055,1.065-6.784c-2.231-2.349-4.325-1.352-6.446,0.662l-2.642,2.51L191.038,107.683z M200.273,117.405
				l3.066-2.913c3.197-3.037,2.847-5.497,0.956-7.487c-2.076-2.186-4.692-1.935-7.27,0.514l-3.229,3.068L200.273,117.405z"/>
		</g>
		<g>
			<path class="st1" d="M231.643,98.265c-6.709,4.378-13.783,2.761-19.392-5.832c-6.297-9.648-2.442-17,2.834-20.444
				c5.616-3.665,12.93-3.494,19.177,6.08C239.895,86.699,238.239,93.961,231.643,98.265z M229.422,94.286
				c4.787-3.124,3.192-8.532,0.24-13.055c-2.509-3.844-7.068-8.607-12.27-5.213c-4.824,3.148-3.48,8.667-0.553,13.151
				C219.644,93.467,223.996,97.828,229.422,94.286z"/>
		</g>
		<g>
			<path class="st1" d="M249.418,54.557c4.693-1.959,9.561-2.332,11.866,3.192c1.145,2.741,0.363,5.311-1.395,7.41
				c3.444-0.511,6.464,0.765,7.989,4.42c2.254,5.399-0.288,9.826-7.183,12.703l-11.672,4.871l-1.403-3.364l1.318-0.697
				c0.671-0.377,1.065-0.835,0.719-1.666l-8.061-19.313l-2.419,0.863l-1.474-3.53L249.418,54.557z M249.873,67.682l3.073-1.283
				c3.572-1.49,4.333-3.759,3.414-5.96c-1.248-2.99-3.561-2.806-6.261-1.679l-3.364,1.404L249.873,67.682z M255.039,80.059
				l3.903-1.629c4.071-1.699,4.62-4.123,3.562-6.656c-1.161-2.783-3.696-3.481-6.978-2.111l-4.111,1.716L255.039,80.059z"/>
		</g>
		<g>
			<path class="st1" d="M302.074,44.537c-5.613,0.8-7.85,5.209-6.891,11.938c0.996,6.995,3.929,10.987,10.104,9.971
				c1.247-0.178,2.387-0.476,3.195-0.864c0.764-0.381,0.847-0.757,0.726-1.604l-0.508-3.564l4.59-0.335l1.098,7.708
				c-2.267,1.641-5.71,2.677-8.562,3.083c-9.045,1.289-14.714-3.086-16.161-13.245c-1.657-11.629,4.92-16.521,11.781-17.499
				c2.629-0.375,5.785-0.233,8.637,0.633l1.079,7.575l-4.5,0.959l-0.495-3.475c-0.121-0.847-0.306-1.184-1.146-1.337
				C304.136,44.334,302.965,44.41,302.074,44.537z"/>
		</g>
		<g>
			<path class="st1" d="M322.465,68.629l0.086-3.644l1.488-0.1c0.767-0.072,1.312-0.329,1.334-1.229l0.497-20.917l-2.562-0.196
				l0.091-3.823l10.841,0.257l-0.086,3.644l-1.487,0.1c-0.768,0.072-1.313,0.329-1.339,1.409l-0.477,20.062l7.467,0.177
				c0.945,0.022,1.049-0.561,1.069-1.415l0.074-3.149l4.581,0.424l-0.212,8.907L322.465,68.629z"/>
		</g>
		<g>
			<path class="st1" d="M363.386,72.78c-7.857-1.554-11.789-7.652-9.799-17.716c2.234-11.301,10.127-13.869,16.307-12.647
				c6.577,1.301,11.689,6.531,9.473,17.744C377.369,70.27,371.112,74.307,363.386,72.78z M364.577,68.383
				c5.606,1.108,8.243-3.875,9.29-9.172c0.891-4.502,0.955-11.095-5.137-12.299c-5.65-1.117-8.543,3.77-9.581,9.022
				C358.154,60.966,358.22,67.126,364.577,68.383z"/>
		</g>
		<g>
			<path class="st1" d="M393.75,70.535c-1.649,4.09-0.009,6.158,3.329,7.505c3.339,1.346,6.099,0.519,7.479-2.903l6.16-15.274
				l-2.37-1.102l1.431-3.547l9.891,3.989l-1.363,3.38l-1.428-0.43c-0.784-0.22-1.378-0.071-1.715,0.764l-6.009,14.898
				c-2.204,5.467-7.615,6.973-13.958,4.415c-6.845-2.76-9.239-6.928-6.597-13.48l6.177-15.316l-2.37-1.102l1.431-3.547l10.099,4.073
				l-1.363,3.38l-1.427-0.43c-0.827-0.236-1.387-0.171-1.808,0.872L393.75,70.535z"/>
		</g>
		<g>
			<path class="st1" d="M430.687,90.61c1.49-2.412-0.267-4.449-2.497-6.832c-3.151-3.375-5.728-7.083-2.7-11.983
				c2.886-4.67,8.234-5.28,13.518-2.017c2.527,1.561,4.593,3.525,6.228,6.016l-3.547,5.743l-4.071-2.145l1.372-2.22
				c0.449-0.728,0.523-1.105-0.023-1.76c-0.586-0.679-1.533-1.371-2.299-1.844c-2.259-1.395-4.588-1.564-6.055,0.81
				c-1.466,2.374,0.353,4.396,2.68,7.05c2.798,3.263,5.504,7.103,2.453,12.042c-3.122,5.053-8.807,5.35-14.09,2.086
				c-3.062-1.892-5.129-3.856-6.764-6.347l3.736-6.049l4.071,2.144l-1.443,2.335c-0.449,0.728-0.523,1.104,0.023,1.76
				c0.586,0.679,1.51,1.409,2.544,2.047C426.349,93.009,428.914,93.482,430.687,90.61z"/>
		</g>
		<g>
			<path class="st1" d="M437.073,105.025l2.381-2.76l1.212,0.868c0.639,0.432,1.224,0.58,1.812-0.102l13.665-15.844l-1.854-1.777
				l2.498-2.896l15.605,13.46l-4.879,5.656l-3.681-2.759l1.175-1.363c0.559-0.647,0.844-1.115-0.077-1.908l-5.042-4.35l-5.025,5.827
				l7.87,6.789l-2.997,3.476l-7.871-6.789l-5.495,6.372l5.485,4.732c0.886,0.764,1.307,0.414,1.895-0.268l1.47-1.704l3.27,3.236
				l-5.231,6.065L437.073,105.025z"/>
		</g>
	</g>
	<g>
		<g>
			<path class="st1" d="M155.541,351.094l2.059-1.29l0.602,0.791c0.322,0.4,0.666,0.609,1.174,0.291l11.821-7.407l-0.832-1.497
				l2.161-1.354l7.296,11.644l-4.22,2.645l-1.803-2.481l1.017-0.638c0.483-0.303,0.756-0.545,0.326-1.23l-2.358-3.763l-4.347,2.724
				l3.68,5.873l-2.593,1.624l-3.68-5.872l-4.753,2.979l2.564,4.093c0.415,0.66,0.751,0.521,1.26,0.202l1.271-0.797l1.447,2.704
				l-4.525,2.836L155.541,351.094z"/>
		</g>
		<g>
			<path class="st1" d="M167.628,365.617l0.738,0.793c0.339,0.382,0.671,0.465,1.143,0.094l10.962-8.621l-0.986-1.399l2.004-1.575
				l3.337,4.243l-5.574,15.182l0.037,0.047l8.747-6.878l-1.153-1.612l2.004-1.575l4.524,5.752l-1.91,1.502l-0.738-0.793
				c-0.302-0.335-0.681-0.381-1.176,0.009l-12.966,10.196l-2.169-2.758l5.628-15.453l-0.037-0.047l-8.911,7.008l1.134,1.588
				l-2.004,1.576l-4.542-5.776L167.628,365.617z"/>
		</g>
		<g>
			<path class="st1" d="M196.708,377.669l-1.634-1.675c-0.44-0.45-0.782-0.2-1.147,0.156l-1.009,0.984l-1.987-2.337l3.65-3.562
				l10.957,11.229l-3.65,3.562l-2.287-2.043l1.009-0.984c0.408-0.398,0.624-0.692,0.058-1.272l-1.424-1.46l-10.263,10.015
				l1.591,1.759l-1.825,1.78l-5.908-6.054l1.739-1.697l1.175,1.075c0.441,0.366,0.779,0.455,1.208,0.036L196.708,377.669z"/>
		</g>
		<g>
			<path class="st1" d="M194.107,399.014l1.572-1.853l0.813,0.571c0.427,0.284,0.818,0.38,1.207-0.077l9.025-10.636l-1.246-1.176
				l1.65-1.943l10.476,8.889l-3.222,3.797l-2.469-1.819l0.776-0.915c0.369-0.435,0.556-0.748-0.062-1.271l-3.385-2.873l-3.319,3.911
				l5.284,4.484l-1.98,2.333l-5.284-4.484l-3.629,4.277l3.683,3.125c0.595,0.505,0.874,0.27,1.262-0.188l0.97-1.144l2.197,2.14
				l-3.455,4.071L194.107,399.014z"/>
		</g>
		<g>
			<path class="st1" d="M209.988,409.105l0.866,0.488c0.454,0.239,0.853,0.296,1.193-0.198l7.918-11.487l-1.357-1.045l1.448-2.1
				l6.744,4.648c3.631,2.504,5.111,5.272,2.795,8.633c-1.703,2.471-4.228,2.697-5.961,2.305c0.497,0.706,0.578,1.382,0.37,2.478
				l-0.895,5.104l1.374,1.02l-1.447,2.1l-6.102-4.206l1.379-2.001l0.768,0.42c0.619,0.317,0.896,0.181,1.014-0.467l0.542-3.271
				c0.182-1.005,0.091-1.613-0.773-2.209l-2.248-1.55l-2.963,4.298l1.555,1.182l-1.447,2.1l-6.151-4.24L209.988,409.105z
				 M221.383,406.902c2.1,1.447,3.703,1.131,4.912-0.623c1.532-2.224,0.435-3.381-1.665-4.828l-1.804-1.243l-3.593,5.213
				L221.383,406.902z"/>
		</g>
		<g>
			<path class="st1" d="M238.566,410.317l-2.044-1.136c-0.551-0.307-0.807,0.031-1.055,0.477l-0.685,1.232l-2.572-1.67l2.477-4.456
				l13.71,7.621l-2.477,4.456l-2.776-1.303l0.685-1.231c0.277-0.499,0.399-0.842-0.309-1.235l-1.782-0.991l-6.966,12.53l2.027,1.23
				l-1.239,2.228l-7.393-4.109l1.181-2.123l1.433,0.693c0.527,0.225,0.876,0.213,1.168-0.312L238.566,410.317z"/>
		</g>
		<g>
			<path class="st1" d="M252.591,417.123l-1.658-0.927l0.979-2.225l6.29,2.768l-1.37,18.313l0.027,0.012l1.529,0.771l-1.027,2.334
				l-7.086-3.117l0.979-2.226l1.08,0.377c0.601,0.199,0.948,0.155,1.022-0.533l0.172-1.957l-6.427-2.828l-1.887,2.055l1.612,0.808
				l-1.027,2.335l-6.345-2.792l0.979-2.225l0.943,0.316c0.491,0.15,0.74,0.03,1.162-0.407L252.591,417.123z M248.872,425.65
				l5.108,2.248l0.972-8.916l-0.083-0.036L248.872,425.65z"/>
		</g>
		<g>
			<path class="st1" d="M267.995,423.394l-1.589-0.64l0.826-2.412l6.869,2.352l-0.788,2.299l-0.966-0.235
				c-0.502-0.108-0.901-0.055-1.134,0.627l-4.481,13.083l1.588,0.64l-0.826,2.412l-6.868-2.352l0.787-2.3l0.966,0.236
				c0.559,0.128,0.901,0.055,1.144-0.655L267.995,423.394z"/>
		</g>
		<g>
			<path class="st1" d="M272.089,440.61l1.07,0.171c0.502,0.093,0.815-0.047,0.958-0.629l3.334-13.546l-1.639-0.496l0.609-2.476
				l5.244,1.291l4.952,15.399l0.058,0.015l2.661-10.807l-1.901-0.561l0.609-2.477l7.107,1.75l-0.581,2.359l-1.07-0.171
				c-0.444-0.078-0.771,0.119-0.921,0.731l-3.944,16.021l-3.408-0.839l-5.076-15.646l-0.059-0.015l-2.71,11.011l1.872,0.554
				l-0.609,2.476l-7.137-1.757L272.089,440.61z"/>
		</g>
		<g>
			<path class="st1" d="M294.688,448.293l0.325-2.408l0.993,0.044c0.513,0.009,0.894-0.122,0.974-0.717l1.866-13.821l-1.682-0.317
				l0.341-2.527l13.613,1.838l-0.666,4.935l-3.06-0.201l0.161-1.189c0.076-0.564,0.065-0.929-0.738-1.037l-4.399-0.594l-0.687,5.082
				l6.867,0.928l-0.41,3.031l-6.866-0.927l-0.75,5.559l4.786,0.646c0.773,0.104,0.88-0.244,0.961-0.839l0.201-1.485l3.003,0.617
				l-0.714,5.291L294.688,448.293z"/>
		</g>
		<g>
			<path class="st1" d="M313.502,448.223l0.992-0.057c0.512-0.043,0.878-0.21,0.898-0.81l0.475-13.942l-1.706-0.148l0.087-2.549
				l8.186,0.279c4.408,0.15,7.147,1.685,7.008,5.763c-0.103,2.998-2.106,4.551-3.778,5.154c0.799,0.327,1.232,0.853,1.647,1.887
				l1.998,4.781l1.707,0.118l-0.087,2.549l-7.405-0.253l0.083-2.429l0.873-0.06c0.692-0.066,0.852-0.332,0.602-0.94l-1.307-3.047
				c-0.388-0.943-0.792-1.407-1.842-1.443l-2.729-0.093l-0.178,5.217l1.946,0.156l-0.087,2.549l-7.466-0.254L313.502,448.223z
				 M321.91,440.224c2.548,0.087,3.728-1.043,3.8-3.172c0.092-2.699-1.456-3.082-4.004-3.169l-2.189-0.074l-0.216,6.326
				L321.91,440.224z"/>
		</g>
		<g>
			<path class="st1" d="M355.12,439.939c-0.042-0.357-0.23-0.426-0.592-0.414l-0.961,0.051l-0.27-2.324l6.287-0.731l0.281,2.414
				l-1.633,0.25c0.208,1.788,0.032,3.651-0.642,5.391c1.603,1.052,3.28,1.975,4.087,2.425l-1.665,2.821
				c-1.093-0.568-2.548-1.396-4.08-2.365c-1.238,1.563-3.32,2.621-5.883,2.919c-5.126,0.596-7.387-2.223-7.736-5.232
				c-0.339-2.92,1.008-5.101,2.915-6.621c-0.78-0.996-1.18-2.098-1.305-3.171c-0.339-2.92,1.468-5.305,5.163-5.734
				c2.026-0.235,3.681-0.035,5.565,0.592l0.523,4.5l-3.016,0.562l-0.212-1.817c-0.065-0.566-0.189-0.854-0.747-0.971
				c-0.523-0.09-1.04-0.12-1.606-0.055c-1.64,0.19-2.324,1.056-2.147,2.575c0.291,2.503,4.216,5.611,7.424,7.745
				C355.103,441.873,355.223,440.832,355.12,439.939z M347.156,440.804c-1.013,0.903-1.589,2.178-1.412,3.698
				c0.229,1.967,1.616,3.255,4.06,2.971c1.55-0.18,2.684-0.825,3.384-1.812C351.026,444.22,348.742,442.492,347.156,440.804z"/>
		</g>
		<g>
			<path class="st1" d="M378.552,426.86c-3.646,0.995-4.759,4.099-3.565,8.47c1.241,4.544,3.513,6.94,7.513,5.756
				c0.811-0.222,1.539-0.514,2.042-0.838c0.474-0.316,0.497-0.571,0.347-1.121l-0.632-2.315l3.008-0.604l1.367,5.008
				c-1.363,1.274-3.555,2.246-5.407,2.752c-5.876,1.604-9.99-0.817-11.792-7.418c-2.063-7.555,1.88-11.337,6.338-12.555
				c1.708-0.466,3.808-0.636,5.766-0.299l1.344,4.921l-2.896,1.009l-0.617-2.258c-0.15-0.55-0.3-0.758-0.868-0.789
				C379.9,426.554,379.131,426.701,378.552,426.86z"/>
		</g>
		<g>
			<path class="st1" d="M402.125,437.586c-4.968,1.958-9.369-0.047-11.878-6.41c-2.816-7.145,0.687-11.428,4.594-12.968
				c4.158-1.64,8.91-0.546,11.705,6.543C409.065,431.142,407.009,435.66,402.125,437.586z M401.209,434.691
				c3.545-1.397,3.229-5.143,1.909-8.491c-1.122-2.847-3.46-6.568-7.312-5.051c-3.572,1.408-3.436,5.191-2.126,8.513
				C394.935,432.843,397.191,436.275,401.209,434.691z"/>
		</g>
		<g>
			<path class="st1" d="M421.855,420.845l0.053-0.029l-2.035-14.354l5.205-2.861l1.171,2.13l-0.824,0.556
				c-0.444,0.312-0.674,0.644-0.257,1.339l7.275,11.681l1.673-0.817l1.229,2.234l-6.336,3.482l-1.171-2.129l0.903-0.6
				c0.406-0.257,0.609-0.574,0.308-1.059l-5.6-9.007l-0.053,0.029l1.717,12.715l-2.498,1.373l-9.704-8.188l-0.053,0.029
				l4.836,10.043l1.752-0.86l1.229,2.234l-6.205,3.41l-1.17-2.13l0.902-0.599c0.354-0.229,0.473-0.636,0.268-1.071l-6.01-12.615
				l-1.661,0.776l-1.229-2.235l5.284-2.904L421.855,420.845z"/>
		</g>
		<g>
			<path class="st1" d="M437.433,416.241l0.751-0.651c0.379-0.347,0.566-0.702,0.216-1.189l-8.146-11.324l-1.44,0.926l-1.489-2.07
				l6.966-5.01c3.579-2.575,6.997-2.447,9.345,0.816c2.663,3.701,1.364,7.444-2.313,10.089l-2.07,1.489l2.54,3.531l2.391-1.608
				l1.489,2.07l-6.819,4.904L437.433,416.241z M439.306,405.694c2.118-1.524,3.03-3.288,1.471-5.456
				c-1.804-2.508-3.521-1.864-5.908-0.147l-1.485,1.068l4.169,5.796L439.306,405.694z"/>
		</g>
		<g>
			<path class="st1" d="M462.104,400.593c-3.981,3.559-8.806,3.202-13.363-1.898c-5.117-5.727-3.314-10.958-0.183-13.756
				c3.333-2.979,8.17-3.6,13.247,2.083C466.382,392.144,466.019,397.095,462.104,400.593z M460.242,398.194
				c2.841-2.538,1.248-5.942-1.15-8.627c-2.039-2.281-5.521-4.963-8.608-2.204c-2.863,2.559-1.425,6.06,0.954,8.722
				C453.716,398.634,457.021,401.073,460.242,398.194z"/>
		</g>
		<g>
			<path class="st1" d="M474.001,380.258c-1.393-1.277-2.946-0.382-4.786,0.78c-2.604,1.642-5.354,2.864-8.185,0.269
				c-2.697-2.474-2.428-6.053,0.371-9.104c1.339-1.459,2.883-2.566,4.719-3.325l3.316,3.042l-1.913,2.397l-1.282-1.176
				c-0.421-0.386-0.658-0.481-1.156-0.205c-0.518,0.298-1.089,0.832-1.494,1.274c-1.197,1.305-1.6,2.809-0.229,4.065
				c1.371,1.258,2.923,0.32,4.952-0.872c2.487-1.424,5.34-2.715,8.192-0.099c2.919,2.677,2.401,6.437-0.397,9.487
				c-1.622,1.769-3.167,2.876-5.002,3.635l-3.494-3.204l1.914-2.397l1.349,1.237c0.42,0.386,0.658,0.481,1.155,0.205
				c0.519-0.299,1.111-0.812,1.659-1.409C475.03,383.399,475.661,381.78,474.001,380.258z"/>
		</g>
		<g>
			<path class="st1" d="M483.538,377.839l-1.935-1.471l0.527-0.843c0.262-0.442,0.336-0.838-0.142-1.201l-11.104-8.443l-1.106,1.307
				l-2.029-1.544l8.316-10.937l3.964,3.015l-1.686,2.562l-0.955-0.727c-0.453-0.345-0.776-0.515-1.267,0.13l-2.688,3.534
				l4.084,3.104l4.194-5.516l2.436,1.852l-4.194,5.517l4.466,3.396l2.923-3.845c0.473-0.621,0.222-0.887-0.256-1.25l-1.193-0.907
				l2.019-2.309l4.251,3.231L483.538,377.839z"/>
		</g>
		<g>
			<path class="st1" d="M492.763,361.447l0.44-0.891c0.215-0.466,0.25-0.867-0.262-1.181l-11.892-7.287l-0.97,1.411l-2.174-1.332
				l4.278-6.981c2.303-3.76,4.988-5.386,8.466-3.255c2.558,1.567,2.92,4.076,2.621,5.827c0.679-0.534,1.349-0.651,2.453-0.502
				l5.144,0.619l0.944-1.426l2.174,1.331l-3.871,6.317l-2.071-1.27l0.378-0.789c0.283-0.635,0.132-0.903-0.521-0.987l-3.294-0.365
				c-1.013-0.127-1.615-0.004-2.164,0.891l-1.426,2.327l4.449,2.727l1.096-1.615l2.174,1.332l-3.902,6.368L492.763,361.447z
				 M489.952,350.191c1.332-2.173,0.93-3.756-0.886-4.869c-2.302-1.41-3.397-0.253-4.729,1.921l-1.145,1.867l5.396,3.307
				L489.952,350.191z"/>
		</g>
	</g>
	<g>
		<g>
			<path class="st1" d="M253.764,313.994v-1.944l0.792-0.072c0.408-0.048,0.696-0.191,0.696-0.672v-11.161l-1.368-0.071v-2.04
				h10.993v3.984l-2.448,0.168v-0.961c0-0.456-0.048-0.743-0.696-0.743h-3.552v4.104h5.544v2.448h-5.544v4.488h3.864
				c0.624,0,0.672-0.287,0.672-0.768v-1.2l2.448,0.168v4.272H253.764z"/>
		</g>
		<g>
			<path class="st1" d="M283.188,309.53c0-1.512-1.368-1.943-3.048-2.399c-2.376-0.648-4.584-1.608-4.584-4.681
				c0-2.929,2.256-4.704,5.568-4.704c1.584,0,3.072,0.312,4.512,0.983v3.601l-2.448,0.168v-1.392c0-0.456-0.072-0.648-0.504-0.793
				c-0.456-0.144-1.08-0.191-1.56-0.191c-1.416,0-2.52,0.576-2.52,2.064c0,1.487,1.392,1.896,3.192,2.448
				c2.185,0.695,4.489,1.68,4.489,4.776c0,3.168-2.497,4.896-5.809,4.896c-1.92,0-3.408-0.312-4.849-0.984v-3.793l2.448-0.168v1.465
				c0,0.456,0.072,0.647,0.504,0.792c0.456,0.144,1.08,0.216,1.729,0.216C281.892,311.834,283.188,311.33,283.188,309.53z"/>
		</g>
		<g>
			<path class="st1" d="M300.684,300.409h-1.872c-0.504,0-0.552,0.336-0.552,0.744v1.128l-2.448-0.168v-4.08h12.553v4.08
				l-2.448,0.168v-1.128c0-0.456-0.048-0.744-0.696-0.744h-1.632v11.473l1.896,0.072v2.04h-6.769v-1.944l1.272-0.072
				c0.456-0.048,0.696-0.191,0.696-0.672V300.409z"/>
		</g>
		<g>
			<path class="st1" d="M318.108,310.922c1.152,0,1.8,0.696,1.8,1.704c0,0.96-0.624,1.729-1.704,1.729c-1.2,0-1.8-0.696-1.8-1.704
				C316.404,311.666,317.052,310.922,318.108,310.922z"/>
		</g>
		<g>
			<path class="st1" d="M330.684,312.146l4.776-6.024c1.128-1.439,1.68-2.063,1.68-3.432c0-1.393-0.888-2.064-2.016-2.064
				c-0.672,0-1.08,0.072-1.44,0.192c-0.432,0.144-0.479,0.384-0.479,0.84v1.704l-2.448-0.168v-3.841
				c1.248-0.624,3.023-1.128,4.848-1.128c2.952,0,4.561,1.729,4.561,4.272c0,1.584-0.768,3.024-2.04,4.561l-3.864,4.561h6.001v2.376
				h-9.577V312.146z"/>
		</g>
		<g>
			<path class="st1" d="M361.957,306.121c0,5.688-1.969,8.113-5.617,8.113c-3.672,0-5.521-2.425-5.521-8.017
				c0-5.521,2.257-7.993,5.689-7.993C359.868,298.225,361.957,300.457,361.957,306.121z M359.1,306.17
				c0-4.369-1.08-5.593-2.664-5.593c-1.681,0-2.713,1.368-2.713,5.904c0,4.152,1.032,5.448,2.665,5.448
				C357.972,311.93,359.1,310.73,359.1,306.17z"/>
		</g>
		<g>
			<path class="st1" d="M383.196,306.121c0,5.688-1.968,8.113-5.616,8.113c-3.672,0-5.521-2.425-5.521-8.017
				c0-5.521,2.256-7.993,5.688-7.993C381.108,298.225,383.196,300.457,383.196,306.121z M380.339,306.17
				c0-4.369-1.08-5.593-2.664-5.593c-1.68,0-2.712,1.368-2.712,5.904c0,4.152,1.032,5.448,2.664,5.448
				C379.211,311.93,380.339,310.73,380.339,306.17z"/>
		</g>
		<g>
			<path class="st1" d="M397.571,300.818l-0.479,3.672c3.264,0.24,6.072,1.608,6.072,4.992c0,2.257-1.368,4.776-5.328,4.776
				c-1.92,0-3.769-0.624-4.681-1.2l0.96-2.208c0.912,0.504,2.185,1.032,3.601,1.032c1.824,0,2.448-1.008,2.448-2.353
				c0-2.616-3.36-2.928-5.736-2.928l1.032-8.064h4.776c0.432,0,0.552-0.288,0.552-0.672v-1.032l2.28,0.168v3.816H397.571z"/>
		</g>
	</g>
	<g>
		<g>
			<g>
				<polygon class="st1" points="421.787,304.236 421.787,310.236 477.287,310.236 479.287,304.236 				"/>
			</g>
		</g>
		<g>
			<g>
				<polygon class="st1" points="180.287,310.236 234.787,310.236 234.787,304.236 178.287,304.236 				"/>
			</g>
		</g>
	</g>
	<g>
		<g>
			<g>
				<polygon class="st1" points="68.357,289.236 58.787,289.236 58.787,280.35 58.787,221.236 5.865,221.236 44.928,261.934 
					5.865,305.236 105.787,305.236 101.787,289.236 				"/>
			</g>
		</g>
	</g>
	<g>
		<g>
			<g>
				<polygon class="st1" points="651.709,221.236 593.787,221.236 593.787,280.35 593.787,289.236 593.123,289.236 555.787,289.236 
					551.787,305.236 651.709,305.236 612.646,264.539 				"/>
			</g>
		</g>
	</g>
	<g>
		<g>
			<path class="st1" d="M62.787,196.236v88h527v-88H62.787z"/>
		</g>
	</g>
	<g>
		<g>
			<path class="st2" d="M130.74,251.564c-0.064,0.489-0.22,0.888-0.463,1.197c-0.244,0.31-0.536,0.554-0.878,0.733
				c-0.342,0.179-0.707,0.306-1.097,0.378c-0.391,0.074-0.765,0.11-1.122,0.11c-0.423,0-0.833-0.045-1.231-0.134
				c-0.398-0.09-0.752-0.229-1.061-0.416c-0.309-0.187-0.553-0.414-0.731-0.684c-0.18-0.268-0.269-0.573-0.269-0.915
				c0-0.667,0.032-1.282,0.098-1.843c0.064-0.562,0.162-1.127,0.293-1.698c0.416-1.906,0.803-3.677,1.159-5.312
				c0.357-1.636,0.771-3.17,1.238-4.604c0.469-1.434,0.782-2.842,0.941-4.226c0.158-1.383,0.317-2.767,0.476-4.15
				c0.159-1.383,0.226-2.824,0.199-4.323c-0.025-1.498-0.054-3.104-0.083-4.816c0-0.148,0-0.337,0-0.567
				c0-0.23-0.023-0.448-0.069-0.651c-0.047-0.203-0.128-0.378-0.243-0.525c-0.116-0.146-0.29-0.22-0.521-0.22
				c-0.371,0-0.822,0.134-1.355,0.403s-1.093,0.631-1.68,1.086c-0.587,0.456-1.174,0.989-1.761,1.599s-1.128,1.266-1.622,1.965
				c-0.093,0.244-0.239,0.419-0.44,0.525c-0.2,0.106-0.424,0.159-0.671,0.159c-0.077,0-0.159-0.069-0.244-0.208
				c-0.084-0.138-0.162-0.305-0.231-0.5s-0.127-0.403-0.174-0.623c-0.046-0.22-0.069-0.419-0.069-0.598
				c0-0.098,0.033-0.179,0.098-0.244c0.586-1.92,1.249-3.528,1.99-4.822c0.74-1.294,1.521-2.327,2.344-3.101
				c0.821-0.773,1.66-1.322,2.514-1.648c0.855-0.325,1.673-0.488,2.454-0.488c1.009,0,1.847,0.191,2.515,0.574
				c0.667,0.383,1.196,0.92,1.587,1.611c0.391,0.692,0.663,1.526,0.817,2.502c0.155,0.977,0.232,2.059,0.232,3.247
				c0,0.912-0.089,1.981-0.268,3.208c-0.178,1.228-0.365,2.52-0.562,3.877s-0.446,2.705-0.751,4.041s-0.601,2.583-0.886,3.742
				c0.526-2.165,1.148-4.244,1.865-6.238c0.717-1.994,1.5-3.857,2.349-5.591s1.75-3.304,2.706-4.712
				c0.956-1.408,1.94-2.616,2.954-3.625c1.013-1.009,2.039-1.79,3.077-2.344c1.038-0.553,2.068-0.83,3.09-0.83
				c0.748,0,1.439,0.163,2.074,0.488c0.635,0.326,1.181,0.83,1.636,1.514s0.81,1.546,1.062,2.588
				c0.252,1.042,0.378,2.279,0.378,3.711c0,0.13-0.013,0.334-0.036,0.61c-0.025,0.277-0.058,0.594-0.098,0.952
				c-0.041,0.358-0.09,0.745-0.146,1.16c-0.058,0.415-0.11,0.826-0.159,1.233c-0.131,0.977-0.269,2.035-0.415,3.174l0.513-0.024
				c0.633-2.409,1.413-4.573,2.339-6.494c0.927-1.92,1.966-3.552,3.119-4.895s2.396-2.372,3.729-3.088
				c1.332-0.716,2.713-1.074,4.143-1.074c0.985,0,1.861,0.293,2.629,0.879c0.767,0.586,1.409,1.379,1.926,2.38
				s0.912,2.173,1.187,3.516s0.412,2.763,0.412,4.26c0,1.4-0.138,2.865-0.411,4.395c-0.274,1.53-0.547,3.052-0.818,4.565
				s-0.539,3.001-0.802,4.464s-0.512,2.85-0.747,4.161c-0.236,1.312-0.45,2.518-0.644,3.62c-0.192,1.103-0.289,1.937-0.289,2.503
				c0,0.711,0.174,1.226,0.521,1.545c0.348,0.319,0.853,0.479,1.516,0.479c0.375,0,0.77-0.102,1.185-0.306
				c0.415-0.203,0.83-0.472,1.245-0.806c0.415-0.333,0.826-0.716,1.232-1.147c0.407-0.431,0.798-0.875,1.172-1.331
				c0.863-1.042,1.718-2.238,2.563-3.589c0,0.017,0.073,0.188,0.22,0.513c0.114,0.277,0.302,0.749,0.562,1.416
				c0.261,0.667,0.627,1.628,1.099,2.881c-0.813,1.433-1.651,2.646-2.515,3.638c-0.862,0.993-1.741,1.803-2.637,2.43
				c-0.895,0.626-1.803,1.078-2.722,1.354c-0.92,0.277-1.832,0.415-2.738,0.415c-0.878,0-1.736-0.154-2.574-0.464
				c-0.837-0.309-1.581-0.769-2.232-1.38c-0.65-0.609-1.171-1.367-1.561-2.27c-0.391-0.904-0.586-1.942-0.586-3.114
				c0-0.13,0.004-0.269,0.013-0.415c0.008-0.146,0.02-0.293,0.036-0.439c0.064-1.09,0.209-2.259,0.433-3.504
				c0.224-1.246,0.455-2.537,0.694-3.873c0.239-1.335,0.482-2.691,0.729-4.067s0.492-2.748,0.737-4.116
				c0.244-1.368,0.484-2.712,0.719-4.032c0.233-1.319,0.351-2.471,0.351-3.455c0-0.732-0.024-1.396-0.074-1.99
				c-0.049-0.594-0.147-1.099-0.295-1.514s-0.359-0.736-0.639-0.964c-0.278-0.228-0.647-0.342-1.105-0.342
				c-0.923,0-1.792,0.3-2.609,0.9c-0.818,0.6-1.592,1.427-2.322,2.481c-0.731,1.054-1.414,2.303-2.049,3.746
				c-0.636,1.444-1.235,3.005-1.801,4.684c-0.565,1.678-1.045,3.437-1.439,5.274c-0.395,1.838-0.828,3.74-1.301,5.708
				s-0.835,3.829-1.087,5.585s-0.535,3.445-0.851,5.066c-0.114,0.456-0.288,0.844-0.521,1.161c-0.234,0.318-0.504,0.575-0.81,0.771
				c-0.305,0.195-0.628,0.338-0.969,0.427c-0.341,0.09-0.682,0.135-1.022,0.135s-0.679-0.064-1.012-0.195
				c-0.333-0.13-0.625-0.338-0.877-0.623c-0.252-0.284-0.455-0.646-0.609-1.086s-0.231-0.977-0.231-1.611
				c-0.313-0.423-0.373-1.153-0.177-2.191c0.196-1.037,0.434-2.27,0.714-3.698c0.279-1.428,0.604-3.021,0.976-4.78
				c0.372-1.759,0.71-3.512,1.015-5.261c0.305-1.749,0.63-3.495,0.976-5.237c0.346-1.742,0.519-3.345,0.519-4.811
				c0-1.009-0.025-1.912-0.076-2.71c-0.051-0.797-0.168-1.473-0.354-2.026c-0.186-0.553-0.451-0.977-0.797-1.27
				s-0.805-0.439-1.378-0.439c-0.473,0-1.012,0.31-1.619,0.928c-0.606,0.618-1.26,1.473-1.959,2.563
				c-0.7,1.09-1.421,2.372-2.162,3.845c-0.742,1.473-1.48,3.064-2.213,4.773c-0.733,1.709-1.441,3.495-2.124,5.358
				c-0.684,1.864-1.256,3.742-1.719,5.634c-0.463,1.893-0.911,3.73-1.347,5.512C131.509,248.415,131.108,250.059,130.74,251.564z"/>
		</g>
		<g>
			<path class="st2" d="M194.079,231.204c0,0.44-0.015,1.038-0.044,1.795c-0.029,0.757-0.127,1.583-0.294,2.479
				c-0.167,0.896-0.368,1.979-0.604,3.25s-0.432,2.322-0.587,3.154c-0.154,0.832-0.29,1.559-0.406,2.183
				c-0.115,0.623-0.174,1.077-0.174,1.36c0,0.458,0.007,0.878,0.021,1.262c0.014,0.384,0.057,0.719,0.126,1.005
				c0.07,0.286,0.18,0.506,0.328,0.663c0.147,0.154,0.362,0.232,0.644,0.232c0.358,0,0.794-0.09,1.307-0.27
				c0.513-0.18,1.058-0.421,1.636-0.724c0.577-0.302,1.168-0.646,1.77-1.029c0.603-0.384,1.176-0.788,1.722-1.213
				c0.545-0.425,1.041-0.846,1.489-1.262c0.447-0.417,0.81-0.805,1.086-1.165c0,0.54,0.004,1.03,0.013,1.471
				c0.008,0.441,0.012,0.862,0.012,1.262c0,0.401,0.004,0.813,0.013,1.238c0.008,0.425,0.012,0.898,0.012,1.421
				c-0.357,0.354-0.802,0.731-1.33,1.133c-0.529,0.401-1.115,0.803-1.758,1.204c-0.644,0.402-1.327,0.787-2.051,1.156
				c-0.725,0.369-1.453,0.694-2.186,0.976s-1.447,0.506-2.146,0.675s-1.347,0.253-1.944,0.253c-0.607,0-1.128-0.12-1.56-0.361
				c-0.433-0.24-0.804-0.577-1.116-1.011c-0.312-0.434-0.576-0.951-0.792-1.553s-0.404-1.271-0.563-2.01
				c-0.587,0.755-1.206,1.449-1.858,2.084c-0.651,0.634-1.315,1.185-1.992,1.65c-0.676,0.466-1.36,0.831-2.054,1.096
				c-0.692,0.265-1.364,0.397-2.016,0.397c-0.535,0-1.038-0.089-1.508-0.269c-0.47-0.179-0.888-0.479-1.253-0.902
				c-0.364-0.423-0.652-0.98-0.863-1.672c-0.21-0.691-0.315-1.55-0.315-2.575c0.017-2.131,0.18-3.767,0.488-4.905
				c0.487-1.662,0.941-4.137,1.364-7.427c0.044-0.241,0.104-0.569,0.181-0.985c0.077-0.417,0.192-0.869,0.347-1.357
				c0.155-0.488,0.346-0.984,0.574-1.489c0.228-0.504,0.496-0.96,0.806-1.367c0.309-0.407,0.671-0.74,1.087-1.001
				c0.414-0.26,0.882-0.398,1.403-0.415c0.862,0.042,1.48,0.182,1.855,0.419c0.374,0.238,0.562,0.534,0.562,0.886
				c-0.146,1.098-0.312,2.152-0.493,3.165c-0.184,1.012-0.366,2.033-0.552,3.061c-0.185,1.027-0.39,2.17-0.615,3.429
				c-0.227,1.258-0.408,2.267-0.544,3.025c-0.137,0.759-0.247,1.373-0.331,1.841s-0.126,0.71-0.126,0.728
				c0,0.302,0.028,0.592,0.086,0.869c0.057,0.277,0.143,0.525,0.257,0.743s0.262,0.395,0.441,0.53
				c0.18,0.134,0.392,0.201,0.637,0.201c0.359,0,0.728-0.096,1.103-0.286c0.376-0.191,0.728-0.468,1.054-0.833
				c0.343-0.331,0.646-0.762,0.906-1.292c0.262-0.513,0.458-1.11,0.589-1.789l2.691-13.305c0.078-0.391,0.396-0.72,0.954-0.989
				s1.19-0.403,1.898-0.403c0.801,0,1.438,0.147,1.909,0.44S194.079,230.749,194.079,231.204z"/>
		</g>
		<g>
			<path class="st2" d="M198.722,244.743c0.911-0.79,1.651-1.448,2.222-1.974c0.569-0.526,1.139-1.139,1.709-1.838
				c0.569-0.699,1.021-1.271,1.355-1.715c0.333-0.444,0.728-0.971,1.184-1.58c0.455-0.608,1.009-1.353,1.66-2.233
				c0.65-0.88,1.497-1.978,2.539-3.294c0.211-0.296,0.447-0.584,0.708-0.864c0.26-0.28,0.55-0.531,0.867-0.753
				c0.317-0.222,0.667-0.403,1.05-0.542c0.382-0.14,0.809-0.21,1.281-0.21c0.782,0,1.385,0.086,1.808,0.259s0.732,0.383,0.928,0.629
				s0.31,0.505,0.342,0.777c0.032,0.271,0.049,0.506,0.049,0.703c0,0.395-0.154,0.831-0.464,1.308
				c-0.31,0.478-0.651,0.938-1.025,1.382c-0.374,0.444-0.729,0.852-1.062,1.222c-0.334,0.37-0.525,0.646-0.575,0.827
				c0,0.51,0.037,0.975,0.112,1.395c0.074,0.419,0.174,0.831,0.299,1.233c0.124,0.403,0.253,0.831,0.386,1.283
				c0.133,0.453,0.261,0.975,0.382,1.567c0.123,0.592,0.139,1.407,0.049,2.443c-0.089,1.037-0.134,2.081-0.134,3.134
				c0.586-0.395,1.217-0.752,1.892-1.073c0.676-0.321,1.38-0.654,2.112-1s1.485-0.728,2.259-1.147
				c0.772-0.419,1.55-0.925,2.331-1.518l0.024,5.528c-1.01,0.753-2.177,1.46-3.504,2.119c-1.326,0.659-2.721,1.24-4.185,1.742
				c-1.463,0.502-2.938,0.898-4.428,1.188s-2.902,0.436-4.236,0.436c-0.961,0-1.855-0.086-2.686-0.257s-1.559-0.439-2.185-0.806
				c-0.627-0.366-1.136-0.845-1.526-1.437c-0.391-0.591-0.627-1.307-0.708-2.147c-0.229,0.05-0.451,0.082-0.671,0.099
				s-0.437,0.024-0.647,0.024c-0.261,0-0.505-0.008-0.732-0.024c-0.229-0.016-0.424-0.078-0.586-0.185
				c-0.163-0.106-0.293-0.279-0.391-0.519c-0.098-0.238-0.146-0.58-0.146-1.025c0-0.395,0.098-0.761,0.293-1.098
				c0.195-0.337,0.423-0.637,0.684-0.9c0.26-0.263,0.521-0.493,0.781-0.691C198.396,245.015,198.591,244.859,198.722,244.743z
				 M201.769,247.902c0.195,0,0.411,0.124,0.646,0.37c0.236,0.248,0.509,0.519,0.818,0.815c0.309,0.296,0.667,0.567,1.074,0.814
				c0.406,0.247,0.87,0.37,1.392,0.37c0.635,0,1.159-0.106,1.575-0.321c0.414-0.213,0.744-0.497,0.988-0.851
				c0.244-0.354,0.415-0.765,0.513-1.234c0.098-0.469,0.146-0.958,0.146-1.469c0-0.444-0.028-0.896-0.085-1.357
				c-0.058-0.461-0.049-1.033,0.023-1.715c0.074-0.683,0.058-1.209-0.049-1.58c-0.105-0.37-0.199-0.687-0.28-0.95L201.769,247.902z"
				/>
		</g>
		<g>
			<path class="st2" d="M235.314,248.758c-0.586,0.537-1.314,1.11-2.186,1.722c-0.87,0.609-1.811,1.172-2.819,1.684
				c-1.01,0.514-2.038,0.94-3.089,1.282c-1.049,0.342-2.047,0.513-2.99,0.513c-0.847,0-1.559-0.118-2.137-0.354
				c-0.577-0.236-1.046-0.565-1.403-0.989c-0.358-0.423-0.614-0.94-0.769-1.55c-0.155-0.611-0.232-1.282-0.232-2.015
				c0-1.026,0.113-2.222,0.342-3.589c0.469-2.828,0.771-4.417,0.905-4.766c0.222-0.695,0.665-2.235,1.33-4.62
				c0.618-1.944,0.999-3.209,1.145-3.796c0.08-0.411,0.304-0.782,0.672-1.111c0.336-0.296,0.716-0.539,1.14-0.728
				c0.424-0.189,0.863-0.329,1.319-0.42c0.455-0.09,0.867-0.136,1.235-0.136c0.671,0,1.127,0.126,1.367,0.378
				c0.239,0.252,0.359,0.59,0.359,1.013c0,0.358-0.084,0.864-0.251,1.518s-0.357,1.399-0.571,2.235
				c-0.214,0.836-0.53,1.912-0.949,3.226c-0.42,1.314-0.707,2.435-0.86,3.362c-0.153,0.928-0.348,1.849-0.582,2.764
				c-0.233,0.916-0.351,1.748-0.351,2.496c0,0.732,0.081,1.314,0.244,1.746c0.162,0.431,0.496,0.646,1.001,0.646
				c0.586,0,1.236-0.203,1.953-0.61c0.716-0.407,1.44-0.899,2.173-1.478c0.732-0.578,1.448-1.176,2.148-1.794
				c0.699-0.618,1.318-1.147,1.855-1.587V248.758z M224.401,223.137c0-0.378,0.081-0.805,0.244-1.281
				c0.162-0.477,0.427-0.924,0.794-1.343c0.365-0.419,0.854-0.772,1.465-1.06c0.609-0.288,1.37-0.432,2.282-0.432
				c0.569,0,1.106,0.066,1.611,0.197c0.504,0.131,0.943,0.333,1.318,0.604c0.374,0.271,0.671,0.628,0.892,1.072
				c0.219,0.444,0.329,0.969,0.329,1.577c0,0.559-0.09,1.101-0.269,1.626c-0.18,0.525-0.464,0.994-0.854,1.404
				c-0.391,0.411-0.883,0.744-1.478,0.999c-0.594,0.255-1.306,0.382-2.136,0.382c-1.433,0-2.49-0.341-3.174-1.023
				C224.743,225.178,224.401,224.271,224.401,223.137z"/>
		</g>
		<g>
			<path class="st2" d="M241.209,253.958c-1.508,0-2.831-0.276-3.97-0.83c-1.139-0.553-2.093-1.294-2.862-2.222
				c-0.771-0.928-1.353-2.002-1.745-3.223c-0.394-1.221-0.59-2.49-0.59-3.809c0-0.944,0.163-2.075,0.49-3.394
				c0.328-1.318,0.684-2.47,1.068-3.455c0.384-0.984,0.858-1.924,1.423-2.82c0.564-0.895,1.219-1.68,1.964-2.356
				c0.744-0.675,1.575-1.212,2.491-1.611c0.916-0.398,1.922-0.598,3.019-0.598c0.986,0,1.9,0.143,2.74,0.427
				c0.84,0.285,1.559,0.68,2.156,1.184c0.598,0.505,1.064,1.103,1.402,1.794c0.338,0.692,0.507,1.437,0.507,2.234
				c0,0.554-0.079,1.099-0.238,1.636c-0.158,0.537-0.467,1.168-0.925,1.892c-0.457,0.725-0.902,1.217-1.334,1.477
				c-0.431,0.261-0.92,0.391-1.466,0.391c-0.823,0-1.354-0.203-1.595-0.61c-0.395-0.635-0.519-1.196-0.373-1.685
				c0.049-0.26,0.194-0.862,0.438-1.807c0.032-0.13,0.04-0.423,0.024-0.879c0-0.391-0.041-0.716-0.122-0.977
				c-0.08-0.26-0.259-0.391-0.534-0.391c-0.664,0-1.231,0.159-1.701,0.476c-0.471,0.317-0.872,0.732-1.203,1.245
				c-0.333,0.513-0.661,1.237-0.985,2.173c-0.324,0.936-0.555,1.721-0.692,2.356s-0.223,1.241-0.255,1.819
				c-0.033,0.578-0.049,1.062-0.049,1.453c0,0.586,0.053,1.196,0.158,1.831s0.315,1.217,0.632,1.746
				c0.315,0.529,0.725,0.969,1.228,1.318c0.502,0.351,1.15,0.525,1.944,0.525c0.781,0,1.644-0.24,2.588-0.721
				c0.943-0.48,1.893-1.086,2.845-1.819s1.858-1.538,2.722-2.417c0.862-0.879,1.603-1.709,2.222-2.49l1.685,2.832
				c-1.221,1.742-2.539,3.296-3.955,4.664c-0.603,0.586-1.257,1.156-1.965,1.709c-0.708,0.554-1.449,1.046-2.222,1.477
				c-0.773,0.432-1.579,0.781-2.417,1.051C242.917,253.823,242.069,253.958,241.209,253.958z"/>
		</g>
		<g>
			<path class="st2" d="M280.309,235.135c0.472,0.944,0.826,1.941,1.062,2.991c0.235,1.05,0.354,2.234,0.354,3.552
				c0,0.96-0.106,1.929-0.317,2.905c-0.212,0.977-0.517,1.921-0.915,2.832c-0.399,0.913-0.888,1.767-1.465,2.564
				c-0.578,0.798-1.237,1.489-1.979,2.075c-0.74,0.586-1.55,1.05-2.429,1.392s-1.815,0.513-2.808,0.513
				c-1.433,0-2.657-0.313-3.674-0.939c-1.018-0.627-1.853-1.444-2.503-2.454c-0.651-1.009-1.127-2.148-1.429-3.418
				c-0.301-1.27-0.451-2.555-0.451-3.857c0-2.148,0.269-4,0.806-5.554c0.537-1.554,1.306-2.905,2.308-4.053
				c1-1.147,2.225-2.051,3.674-2.71c1.448-0.659,3.076-0.989,4.883-0.989c1.546,0,2.994,0.24,4.346,0.72
				c1.351,0.48,2.616,1.123,3.797,1.929c1.18,0.806,2.278,1.819,3.295,3.04c1.018,1.221,1.966,2.385,2.845,3.491l-0.464,3.442
				c-0.439-0.586-1.034-1.221-1.782-1.904c-0.749-0.684-1.542-1.44-2.38-2.271c-0.839-0.83-1.665-1.534-2.479-2.112
				c-0.814-0.578-1.514-1.062-2.1-1.453L280.309,235.135z M272.765,249.271c0.553,0,1.09-0.281,1.611-0.842
				c0.521-0.562,0.977-1.271,1.367-2.125s0.704-1.888,0.94-3.101c0.235-1.212,0.354-2.291,0.354-3.235
				c0-0.749-0.058-1.444-0.171-2.087c-0.114-0.643-0.285-1.2-0.513-1.672c-0.229-0.472-0.521-0.846-0.879-1.123
				c-0.358-0.276-0.79-0.415-1.294-0.415c-0.668,0-1.303,0.285-1.904,0.854c-0.603,0.57-1.132,1.298-1.587,2.185
				c-0.456,0.887-0.814,1.868-1.074,2.942c-0.261,1.074-0.391,2.287-0.391,3.638c0,0.684,0.064,1.327,0.195,1.929
				c0.13,0.603,0.333,1.127,0.61,1.575c0.276,0.448,0.643,0.806,1.099,1.075C271.584,249.136,272.13,249.271,272.765,249.271z"/>
		</g>
		<g>
			<path class="st2" d="M284.899,254.877c0-0.081,0.021-0.576,0.061-1.484c0.041-0.908,0.13-2.118,0.266-3.628
				c0.136-1.51,0.293-3.256,0.471-5.237c0.178-1.98,0.429-4.069,0.754-6.265c0.324-2.196,0.706-4.448,1.146-6.757
				c0.44-2.309,0.964-4.558,1.57-6.746c0.606-2.187,1.301-4.25,2.082-6.186c0.781-1.937,1.658-3.63,2.631-5.08
				c0.972-1.451,2.057-2.597,3.254-3.439c1.196-0.843,2.51-1.264,3.939-1.264c0.552,0,1.132,0.095,1.741,0.285
				c0.609,0.19,1.165,0.5,1.669,0.928c0.504,0.428,0.922,0.995,1.255,1.7c0.332,0.705,0.499,1.573,0.499,2.603
				c0,0.958-0.155,2.059-0.465,3.302c-0.31,1.243-0.745,2.571-1.307,3.985c-0.562,1.413-1.223,2.883-1.984,4.41
				c-0.763,1.527-1.596,3.05-2.5,4.569s-1.855,3.014-2.852,4.484c-0.997,1.47-2.015,2.847-3.053,4.131l-0.049,0.39
				c0.343-0.142,0.6-0.235,0.771-0.278c0.172-0.042,0.352-0.064,0.54-0.064c0.227,0,0.41,0.018,0.55,0.053
				c0.14,0.036,0.266,0.075,0.38,0.118c0.113,0.043,0.23,0.082,0.353,0.118s0.271,0.053,0.445,0.053
				c1.611,0,3.035-0.191,4.272-0.573c1.236-0.381,2.278-0.808,3.125-1.279c0.992-0.536,1.855-1.162,2.588-1.876l-0.537,5.949
				c-1.074,0.592-2.197,1.053-3.369,1.381c-1.172,0.329-2.255,0.576-3.247,0.74c-1.156,0.181-2.318,0.296-3.486,0.345
				c0.628,1.072,1.194,2.185,1.701,3.338c0.436,0.992,0.832,2.1,1.19,3.327c0.357,1.227,0.536,2.465,0.536,3.716
				c0,0.146-0.022,0.454-0.065,0.926c-0.044,0.471-0.116,1.048-0.219,1.729s-0.247,1.438-0.435,2.267
				c-0.188,0.828-0.431,1.664-0.729,2.51c-0.299,0.844-0.66,1.66-1.087,2.448c-0.426,0.787-0.924,1.486-1.495,2.096
				c-0.57,0.608-1.227,1.1-1.968,1.474s-1.581,0.561-2.518,0.561c-0.89,0-1.666-0.203-2.329-0.608
				c-0.662-0.406-1.229-0.954-1.697-1.644s-0.861-1.493-1.176-2.409c-0.315-0.918-0.562-1.887-0.74-2.909s-0.303-2.065-0.376-3.128
				C284.935,256.894,284.899,255.867,284.899,254.877z M291.356,242.045c-0.065,0-0.14,0.187-0.222,0.558
				c-0.083,0.372-0.146,0.839-0.191,1.401c-0.045,0.562-0.108,1.363-0.191,2.402s-0.151,1.89-0.205,2.554
				c-0.055,0.664-0.098,1.293-0.13,1.887c-0.033,0.595-0.049,1.062-0.049,1.404c0,2.393,0.045,4.297,0.135,5.713
				s0.205,2.49,0.344,3.223c0.14,0.732,0.295,1.208,0.467,1.428s0.349,0.33,0.528,0.33c0.557,0,1.003-0.253,1.339-0.757
				c0.336-0.505,0.59-1.145,0.762-1.917c0.172-0.773,0.286-1.62,0.344-2.539c0.057-0.92,0.086-1.803,0.086-2.648
				c0-0.57-0.017-1.27-0.05-2.1c-0.032-0.83-0.082-1.727-0.147-2.688c-0.066-0.962-0.202-2.051-0.408-3.265
				s-0.494-2.126-0.865-2.737s-0.672-1.138-0.902-1.583C291.768,242.267,291.554,242.045,291.356,242.045z M297.535,216.525
				c-0.958,2.161-1.745,4.216-2.361,6.166c-0.565,1.787-0.989,3.371-1.271,4.751s-0.483,2.596-0.604,3.644
				c-0.119,1.048-0.237,2.018-0.352,2.912c1.044-1.868,2.122-3.688,3.235-5.458c1.113-1.771,2.087-3.432,2.922-4.983
				c0.835-1.552,1.549-3.05,2.142-4.496s0.89-2.478,0.89-3.095c0-0.861-0.121-1.491-0.362-1.889
				c-0.242-0.398-0.645-0.597-1.208-0.597c-0.891,0-1.489,0.195-1.797,0.585C298.528,214.389,298.118,215.21,297.535,216.525z"/>
		</g>
		<g>
			<path class="st2" d="M342.443,241.625c-0.049,0.163-1.669,2.275-4.858,6.339c-1.074,1.349-2.055,2.512-2.942,3.487
				c-0.887,0.976-1.7,1.784-2.441,2.426c-0.74,0.642-1.452,1.146-2.136,1.512c-0.684,0.365-1.352,0.621-2.002,0.768
				c-0.651,0.146-1.335,0.22-2.051,0.22c-0.651,0-1.311-0.146-1.978-0.439c-0.668-0.293-1.278-0.635-1.831-1.025
				c-0.554-0.391-1.021-0.777-1.403-1.159c-0.383-0.383-0.607-0.672-0.672-0.867c-0.098-0.13-0.188-0.317-0.269-0.562
				c-0.082-0.244-0.122-0.496-0.122-0.757c0-0.244,0.057-0.46,0.171-0.646c0.113-0.188,0.309-0.281,0.586-0.281
				c0.098,0,0.22,0.025,0.366,0.077c0.504,0.342,1.001,0.589,1.489,0.742s0.943,0.23,1.367,0.23c1.221,0,2.319-0.216,3.296-0.648
				c0.977-0.432,1.855-0.99,2.637-1.675c0.781-0.686,1.48-1.464,2.1-2.336c0.618-0.872,1.379-2.01,2.283-3.412
				c0.902-1.402,1.546-2.506,1.928-3.313c0.383-0.808,0.736-1.496,1.062-2.067c-0.57-1.435-1.156-2.86-1.758-4.279
				c-0.603-1.418-1.229-2.775-1.88-4.07c-0.651-1.296-1.314-2.498-1.989-3.606c-0.676-1.108-1.367-2.074-2.076-2.897
				c-0.707-0.823-1.428-1.467-2.16-1.932c-0.732-0.464-1.465-0.697-2.197-0.697c-0.391,0-0.704,0.049-0.939,0.146
				c-0.236,0.098-0.42,0.228-0.55,0.391c-0.131,0.163-0.22,0.35-0.269,0.562c-0.049,0.212-0.073,0.423-0.073,0.635
				c0,0.244,0.016,0.488,0.049,0.732c0.032,0.244,0.049,0.456,0.049,0.635c0,0.277-0.069,0.448-0.208,0.513
				c-0.138,0.065-0.297,0.098-0.476,0.098c-0.326,0-0.619-0.194-0.879-0.582c-0.261-0.387-0.48-0.904-0.659-1.55
				c-0.18-0.646-0.317-1.385-0.415-2.216s-0.146-1.691-0.146-2.58c0-0.272,0.073-0.552,0.22-0.84
				c0.146-0.288,0.379-0.552,0.695-0.792c0.318-0.24,0.717-0.436,1.197-0.588c0.479-0.152,1.062-0.228,1.745-0.228
				c1.855,0,3.552,0.466,5.091,1.397c1.537,0.932,2.966,2.203,4.284,3.815c1.318,1.612,2.547,3.499,3.687,5.662
				c1.139,2.163,2.246,4.468,3.32,6.914c0.96-1.736,1.884-3.444,2.771-5.125c0.887-1.68,1.704-3.25,2.453-4.711
				c0.748-1.46,1.42-2.779,2.014-3.956c0.595-1.176,1.087-2.125,1.478-2.846c0.211-0.384,0.599-0.697,1.159-0.937
				c0.562-0.24,1.168-0.36,1.819-0.36c0.342,0,0.675,0.048,1.001,0.144c0.325,0.096,0.614,0.249,0.867,0.457
				c0.252,0.208,0.459,0.485,0.622,0.829c0.162,0.345,0.244,0.757,0.244,1.237c0,0.683-0.212,1.52-0.635,2.511
				c-0.375,0.861-0.899,1.975-1.575,3.34c-0.675,1.365-1.473,2.893-2.393,4.583c-0.919,1.69-1.94,3.491-3.063,5.4
				s-2.304,3.832-3.54,5.766L342.443,241.625z"/>
		</g>
		<g>
			<path class="st2" d="M359.472,253.958c-1.521,0-2.85-0.281-3.99-0.845c-1.14-0.563-2.09-1.321-2.85-2.273
				c-0.76-0.953-1.329-2.055-1.709-3.306s-0.57-2.564-0.57-3.939c0-0.899,0.17-1.971,0.51-3.216s0.692-2.35,1.057-3.313
				s0.821-1.883,1.372-2.759c0.55-0.875,1.193-1.646,1.931-2.313c0.736-0.667,1.562-1.196,2.477-1.59
				c0.915-0.394,1.931-0.59,3.048-0.59c0.912,0,1.76,0.146,2.541,0.439c0.782,0.292,1.463,0.703,2.041,1.231
				s1.031,1.167,1.356,1.914c0.326,0.748,0.489,1.585,0.489,2.511c0,0.987-0.33,2.093-0.991,3.318
				c-0.66,1.226-1.431,2.276-2.312,3.151s-1.929,1.655-3.145,2.339c-1.215,0.685-2.532,1.218-3.951,1.6
				c0.245,0.43,0.486,0.788,0.724,1.075c0.236,0.286,0.478,0.509,0.723,0.668c0.245,0.159,0.502,0.271,0.771,0.334
				c0.27,0.064,0.56,0.096,0.87,0.096c0.977,0,2.006-0.192,3.089-0.573c1.082-0.382,2.136-0.86,3.161-1.433s1.993-1.197,2.905-1.874
				c0.911-0.676,1.685-1.316,2.319-1.921l3.149,3.199c-1.433,1.525-2.954,2.876-4.565,4.048c-0.7,0.504-1.452,0.998-2.258,1.484
				s-1.652,0.918-2.539,1.295c-0.888,0.377-1.807,0.679-2.759,0.904C361.415,253.845,360.449,253.958,359.472,253.958z
				 M356.212,242.33c0.588,0,1.229-0.147,1.924-0.441s1.339-0.672,1.936-1.134c0.597-0.461,1.181-1.082,1.752-1.862
				c0.572-0.78,0.858-1.424,0.858-1.934c0-0.716-0.135-1.305-0.404-1.767s-0.601-0.692-0.992-0.692
				c-0.703,0-1.304,0.127-1.802,0.382s-0.915,0.584-1.25,0.991c-0.335,0.406-0.604,0.867-0.809,1.384s-0.441,1.158-0.711,1.922
				s-0.42,1.392-0.453,1.886C356.228,241.558,356.212,241.98,356.212,242.33z"/>
		</g>
		<g>
			<path class="st2" d="M368.986,244.743c0.911-0.79,1.651-1.448,2.222-1.974c0.569-0.526,1.139-1.139,1.709-1.838
				c0.569-0.699,1.021-1.271,1.355-1.715c0.333-0.444,0.728-0.971,1.184-1.58c0.455-0.608,1.009-1.353,1.66-2.233
				c0.65-0.88,1.497-1.978,2.539-3.294c0.211-0.296,0.447-0.584,0.708-0.864c0.26-0.28,0.55-0.531,0.867-0.753
				c0.317-0.222,0.667-0.403,1.05-0.542c0.382-0.14,0.809-0.21,1.281-0.21c0.782,0,1.385,0.086,1.808,0.259s0.732,0.383,0.928,0.629
				s0.31,0.505,0.342,0.777c0.032,0.271,0.049,0.506,0.049,0.703c0,0.395-0.154,0.831-0.464,1.308
				c-0.31,0.478-0.651,0.938-1.025,1.382c-0.374,0.444-0.729,0.852-1.062,1.222c-0.334,0.37-0.525,0.646-0.575,0.827
				c0,0.51,0.037,0.975,0.112,1.395c0.074,0.419,0.174,0.831,0.299,1.233c0.124,0.403,0.253,0.831,0.386,1.283
				c0.133,0.453,0.261,0.975,0.382,1.567c0.123,0.592,0.139,1.407,0.049,2.443c-0.089,1.037-0.134,2.081-0.134,3.134
				c0.586-0.395,1.217-0.752,1.892-1.073c0.676-0.321,1.38-0.654,2.112-1s1.485-0.728,2.259-1.147
				c0.772-0.419,1.55-0.925,2.331-1.518l0.024,5.528c-1.01,0.753-2.177,1.46-3.504,2.119c-1.326,0.659-2.721,1.24-4.185,1.742
				c-1.463,0.502-2.938,0.898-4.428,1.188s-2.902,0.436-4.236,0.436c-0.961,0-1.855-0.086-2.686-0.257s-1.559-0.439-2.185-0.806
				c-0.627-0.366-1.136-0.845-1.526-1.437c-0.391-0.591-0.627-1.307-0.708-2.147c-0.229,0.05-0.451,0.082-0.671,0.099
				s-0.437,0.024-0.647,0.024c-0.261,0-0.505-0.008-0.732-0.024c-0.229-0.016-0.424-0.078-0.586-0.185
				c-0.163-0.106-0.293-0.279-0.391-0.519c-0.098-0.238-0.146-0.58-0.146-1.025c0-0.395,0.098-0.761,0.293-1.098
				c0.195-0.337,0.423-0.637,0.684-0.9c0.26-0.263,0.521-0.493,0.781-0.691C368.66,245.015,368.855,244.859,368.986,244.743z
				 M372.033,247.902c0.195,0,0.411,0.124,0.646,0.37c0.236,0.248,0.509,0.519,0.818,0.815c0.309,0.296,0.667,0.567,1.074,0.814
				c0.406,0.247,0.87,0.37,1.392,0.37c0.635,0,1.159-0.106,1.575-0.321c0.414-0.213,0.744-0.497,0.988-0.851
				c0.244-0.354,0.415-0.765,0.513-1.234c0.098-0.469,0.146-0.958,0.146-1.469c0-0.444-0.028-0.896-0.085-1.357
				c-0.058-0.461-0.049-1.033,0.023-1.715c0.074-0.683,0.058-1.209-0.049-1.58c-0.105-0.37-0.199-0.687-0.28-0.95L372.033,247.902z"
				/>
		</g>
		<g>
			<path class="st2" d="M411.022,248.49c-1.564,0.912-2.958,1.709-4.181,2.393s-2.311,1.254-3.264,1.709
				c-0.954,0.456-1.801,0.798-2.543,1.025c-0.741,0.229-1.414,0.342-2.017,0.342c-1.23,0-2.315-0.374-3.254-1.123
				c-0.939-0.748-1.724-1.827-2.355-3.234c-0.631-1.409-1.104-3.114-1.42-5.116c-0.316-2.002-0.474-4.256-0.474-6.763
				c0-0.977,0.04-2.018,0.121-3.125c0.08-1.106,0.193-2.205,0.339-3.296c-0.492-0.072-0.873-0.141-1.144-0.204
				c-0.271-0.063-0.557-0.127-0.859-0.19c-0.304-0.063-0.688-0.131-1.155-0.204c-0.467-0.073-1.144-0.163-2.027-0.272
				c-0.394-0.054-0.696-0.158-0.91-0.312c-0.212-0.154-0.368-0.335-0.467-0.544c-0.098-0.208-0.155-0.425-0.172-0.652
				c-0.016-0.227-0.024-0.421-0.024-0.584c0-0.257,0.16-0.453,0.479-0.588c0.319-0.135,0.729-0.236,1.227-0.304
				c0.499-0.067,1.047-0.105,1.645-0.114c0.598-0.008,1.17-0.004,1.718,0.012c0.548,0.017,1.039,0.029,1.473,0.037
				c0.434,0.008,0.732-0.004,0.896-0.036c0.439-2.191,0.995-4.313,1.67-6.367c0.674-2.053,1.43-3.878,2.267-5.477
				s1.751-2.881,2.741-3.847c0.991-0.966,2.031-1.449,3.12-1.449c0.7,0,1.339,0.195,1.918,0.585c0.578,0.39,1.07,0.911,1.478,1.561
				s0.721,1.411,0.94,2.28c0.22,0.87,0.33,1.777,0.33,2.72c0,0.78-0.114,1.604-0.342,2.472c-0.229,0.868-0.538,1.752-0.929,2.651
				s-0.851,1.812-1.38,2.734c-0.528,0.924-1.087,1.839-1.673,2.747c0.147-0.054,0.392-0.064,0.734-0.031
				c0.342,0.033,0.736,0.056,1.184,0.069c0.448,0.013,0.932,0.026,1.453,0.039c0.521,0.013,1.025,0.028,1.514,0.044
				c0.488,0.017,0.943,0.033,1.367,0.049c0.423,0.017,0.772,0.033,1.05,0.049c0.325,0.019,0.562,0.2,0.708,0.543
				c0.146,0.344,0.22,0.779,0.22,1.304c0,0.608-0.163,1.104-0.489,1.486c-0.325,0.382-0.685,0.573-1.075,0.573h-9.386
				c-0.474,0.651-0.952,1.29-1.435,1.917c-0.481,0.627-0.928,1.192-1.336,1.697c-0.065,1.009-0.122,2.002-0.171,2.979
				c-0.017,0.423-0.033,0.859-0.049,1.306c-0.017,0.448-0.033,0.891-0.049,1.331c-0.017,0.439-0.028,0.863-0.037,1.27
				c-0.008,0.407-0.012,0.781-0.012,1.123c0,0.879,0.082,1.62,0.245,2.222c0.163,0.603,0.4,1.095,0.711,1.477
				c0.311,0.383,0.69,0.659,1.14,0.83s0.951,0.257,1.507,0.257c0.342,0,0.77-0.081,1.283-0.245c0.514-0.163,1.075-0.386,1.687-0.671
				c0.61-0.285,1.254-0.623,1.931-1.013c0.676-0.391,1.344-0.818,2.004-1.282c0.659-0.464,1.291-0.952,1.894-1.465
				s1.148-1.038,1.638-1.575V248.49z M403.209,217.573c0-0.178-0.013-0.377-0.037-0.596s-0.077-0.425-0.159-0.62
				c-0.081-0.195-0.208-0.357-0.38-0.487c-0.172-0.129-0.413-0.194-0.723-0.194c-0.425,0-0.854,0.372-1.287,1.115
				c-0.433,0.743-0.85,1.692-1.25,2.848s-0.776,2.428-1.127,3.817c-0.352,1.39-0.675,2.739-0.969,4.047
				c0.245,0.024,0.49,0.045,0.735,0.064c0.245,0.018,0.498,0.039,0.76,0.063c0.49-0.82,1.001-1.709,1.532-2.666
				s1.009-1.897,1.434-2.822c0.425-0.924,0.776-1.789,1.054-2.593C403.07,218.747,403.209,218.088,403.209,217.573z"/>
		</g>
		<g>
			<path class="st2" d="M417.333,253.958c-1.521,0-2.85-0.281-3.99-0.845c-1.14-0.563-2.09-1.321-2.85-2.273
				c-0.76-0.953-1.329-2.055-1.709-3.306s-0.57-2.564-0.57-3.939c0-0.899,0.17-1.971,0.51-3.216s0.692-2.35,1.057-3.313
				s0.821-1.883,1.372-2.759c0.55-0.875,1.193-1.646,1.931-2.313c0.736-0.667,1.562-1.196,2.477-1.59
				c0.915-0.394,1.931-0.59,3.048-0.59c0.912,0,1.76,0.146,2.541,0.439c0.782,0.292,1.463,0.703,2.041,1.231
				s1.031,1.167,1.356,1.914c0.326,0.748,0.489,1.585,0.489,2.511c0,0.987-0.33,2.093-0.991,3.318
				c-0.66,1.226-1.431,2.276-2.312,3.151s-1.929,1.655-3.145,2.339c-1.215,0.685-2.532,1.218-3.951,1.6
				c0.245,0.43,0.486,0.788,0.724,1.075c0.236,0.286,0.478,0.509,0.723,0.668c0.245,0.159,0.502,0.271,0.771,0.334
				c0.27,0.064,0.56,0.096,0.87,0.096c0.977,0,2.006-0.192,3.089-0.573c1.082-0.382,2.136-0.86,3.161-1.433s1.993-1.197,2.905-1.874
				c0.911-0.676,1.685-1.316,2.319-1.921l3.149,3.199c-1.433,1.525-2.954,2.876-4.565,4.048c-0.7,0.504-1.452,0.998-2.258,1.484
				s-1.652,0.918-2.539,1.295c-0.888,0.377-1.807,0.679-2.759,0.904C419.276,253.845,418.31,253.958,417.333,253.958z
				 M414.074,242.33c0.588,0,1.229-0.147,1.924-0.441s1.339-0.672,1.936-1.134c0.597-0.461,1.181-1.082,1.752-1.862
				c0.572-0.78,0.858-1.424,0.858-1.934c0-0.716-0.135-1.305-0.404-1.767s-0.601-0.692-0.992-0.692
				c-0.703,0-1.304,0.127-1.802,0.382s-0.915,0.584-1.25,0.991c-0.335,0.406-0.604,0.867-0.809,1.384s-0.441,1.158-0.711,1.922
				s-0.42,1.392-0.453,1.886C414.089,241.558,414.074,241.98,414.074,242.33z"/>
		</g>
		<g>
			<path class="st2" d="M427.55,248.856c0-0.716,0.04-1.551,0.122-2.503c0.081-0.952,0.191-1.957,0.329-3.015
				c0.139-1.058,0.302-2.136,0.488-3.235c0.188-1.099,0.428-2.271,0.721-3.516s0.545-2.283,0.757-3.113
				c0.211-0.83,0.423-1.514,0.635-2.051c0.13-0.358,0.26-0.643,0.391-0.854c0.13-0.211,0.28-0.378,0.452-0.5
				c0.17-0.122,0.382-0.203,0.635-0.244c0.252-0.041,0.564-0.061,0.939-0.061c0.423,0,0.753,0.021,0.988,0.061
				c0.236,0.041,0.411,0.139,0.525,0.293c0.113,0.155,0.184,0.378,0.207,0.671c0.025,0.293,0.037,0.692,0.037,1.196
				c0,0.603-0.041,1.457-0.122,2.563c-0.082,1.107-0.106,2.075-0.073,2.905h0.269c0.325-0.651,0.732-1.505,1.221-2.563
				c0.488-1.058,1.001-1.937,1.538-2.637c0.537-0.7,1.147-1.29,1.831-1.77c0.684-0.48,1.473-0.72,2.368-0.72
				c0.309,0,0.61,0.053,0.903,0.159c0.293,0.106,0.55,0.256,0.769,0.452c0.221,0.195,0.395,0.436,0.525,0.72
				c0.13,0.285,0.195,0.606,0.195,0.964c0,0.277-0.041,0.664-0.122,1.16c-0.082,0.497-0.212,1.144-0.391,1.941
				c-0.18,0.798-0.31,1.453-0.391,1.965c-0.082,0.513-0.122,0.94-0.122,1.282c0,0.586,0.057,1.074,0.171,1.465
				c0.113,0.391,0.265,0.704,0.452,0.94c0.187,0.236,0.398,0.403,0.635,0.5c0.235,0.098,0.483,0.146,0.744,0.146
				c0.732,0,1.489-0.163,2.271-0.488c0.781-0.325,1.497-0.691,2.148-1.099c0.765-0.472,1.514-1.009,2.246-1.611l-0.366,5.713
				c-0.424,0.277-0.903,0.586-1.44,0.928s-1.11,0.664-1.722,0.964c-0.609,0.301-1.244,0.554-1.904,0.757
				c-0.658,0.204-1.33,0.305-2.014,0.305c-1.221,0-2.206-0.248-2.954-0.745c-0.749-0.496-1.343-1.147-1.782-1.953
				s-0.766-1.709-0.977-2.71c-0.212-1.001-0.383-2.014-0.513-3.04h-0.391l-4.37,12.183c-0.229,0.635-0.443,1.159-0.646,1.575
				c-0.204,0.414-0.412,0.753-0.623,1.013c-0.212,0.261-0.439,0.443-0.684,0.55c-0.244,0.105-0.513,0.158-0.806,0.158
				c-0.668,0-1.205-0.143-1.611-0.428c-0.407-0.284-0.72-0.667-0.94-1.146c-0.219-0.48-0.365-1.025-0.439-1.637
				C427.587,250.138,427.55,249.507,427.55,248.856z"/>
		</g>
		<g>
			<path class="st2" d="M458.141,254.373l0.537-2.951c-0.879,0.773-1.794,1.397-2.747,1.872c-0.951,0.476-1.876,0.713-2.771,0.713
				c-0.781,0-1.542-0.158-2.282-0.477c-0.741-0.316-1.396-0.772-1.966-1.367c-0.57-0.594-1.025-1.318-1.367-2.172
				c-0.342-0.855-0.513-1.82-0.513-2.894c0-1.416,0.098-2.714,0.293-3.894c0.194-1.18,0.436-2.636,0.722-4.37
				s0.624-3.101,1.015-4.102s0.838-2.014,1.342-3.04c0.374-0.732,0.911-1.29,1.611-1.672c0.699-0.382,1.383-0.574,2.05-0.574
				c0.569,0,1.058,0.143,1.464,0.428c0.406,0.285,0.61,0.729,0.61,1.331c0,0.18-0.021,0.375-0.06,0.586
				c-0.04,0.212-0.108,0.439-0.204,0.684c-0.287,0.75-0.53,1.64-0.728,2.672c-0.198,1.032-0.461,2.408-0.791,4.127
				c-0.33,1.72-0.591,3.084-0.784,4.092s-0.29,1.906-0.29,2.696c0,0.411,0.028,0.81,0.086,1.196
				c0.057,0.387,0.158,0.732,0.305,1.037c0.146,0.305,0.342,0.551,0.586,0.74c0.244,0.189,0.553,0.284,0.928,0.284
				c0.602,0,1.147-0.262,1.636-0.787c0.488-0.524,0.911-1.155,1.27-1.893c0.357-0.738,0.647-1.5,0.866-2.287
				c0.221-0.787,0.362-1.442,0.428-1.967l1.956-9.13c0.114-0.537,0.343-1.025,0.685-1.465c0.326-0.423,0.709-0.786,1.149-1.087
				c0.44-0.301,0.896-0.525,1.37-0.671c0.473-0.146,0.921-0.22,1.345-0.22c0.505,0,0.929,0.11,1.271,0.33
				c0.342,0.22,0.514,0.566,0.514,1.039c0,0.147-0.024,0.318-0.073,0.514c-0.076,0.433-0.179,1.015-0.306,1.745
				c-0.128,0.73-0.273,1.561-0.436,2.491c-0.163,0.931-0.391,2.236-0.682,3.916c-0.293,1.68-0.529,3.03-0.712,4.053
				c-0.412,2.416-0.833,5.013-1.261,7.788c0.494-0.276,1.027-0.618,1.6-1.024c0.571-0.407,1.207-0.951,1.907-1.635
				c0.7-0.683,1.481-1.541,2.344-2.574c0.862-1.032,1.831-2.321,2.905-3.866l1.172,5.433c-0.293,0.502-0.667,1.011-1.123,1.528
				c-0.488,0.55-1.009,1.083-1.562,1.601c-0.813,0.744-1.399,1.245-1.758,1.503c-0.114,0.081-0.708,0.549-1.782,1.402
				c-0.325,0.276-1.403,1.025-3.232,2.245c-0.445,0.293-0.75,0.826-0.915,1.599c-0.165,0.773-0.354,2.209-0.569,4.308
				c-0.093,0.6-0.151,1.061-0.175,1.384c-0.099,0.777-0.193,1.519-0.282,2.223s-0.247,1.508-0.474,2.411
				c-0.228,0.903-0.496,1.734-0.805,2.492c-0.309,0.757-0.715,1.51-1.219,2.259c-0.503,0.749-1.06,1.388-1.669,1.917
				c-0.608,0.529-1.344,0.956-2.205,1.282c-0.86,0.325-1.803,0.488-2.826,0.488c-0.828,0-1.596-0.094-2.303-0.28
				c-0.706-0.188-1.352-0.476-1.937-0.865c-0.585-0.391-1.064-0.924-1.438-1.598c-0.374-0.675-0.594-1.468-0.658-2.379
				c-0.131-1.723,0.342-3.544,1.416-5.462c0.602-1.074,1.025-1.817,1.27-2.231c0.244-0.415,0.626-1.013,1.147-1.793
				c0.521-0.765,1.065-1.455,1.636-2.073c1.139-1.284,2.079-2.316,2.819-3.097C456.233,256.104,457.116,255.267,458.141,254.373z
				 M458.227,260.259c-1.142,0.813-2.267,2.115-3.375,3.905c-1.109,1.79-1.989,3.612-2.642,5.468
				c-0.539,1.562-0.271,2.344,0.804,2.344c0.391,0,0.74-0.049,1.05-0.146c0.309-0.098,0.594-0.272,0.854-0.525
				c0.26-0.252,0.488-0.528,0.684-0.83c0.195-0.301,0.403-0.724,0.622-1.27c0.221-0.545,0.416-1.082,0.586-1.611
				c0.172-0.528,0.387-1.232,0.647-2.111c0.146-0.473,0.255-0.998,0.326-1.577c0.071-0.58,0.155-1.275,0.255-2.089
				C458.136,261.003,458.2,260.484,458.227,260.259z"/>
		</g>
		<g>
			<path class="st2" d="M480.468,253.958c-1.521,0-2.85-0.281-3.99-0.845c-1.14-0.563-2.09-1.321-2.85-2.273
				c-0.76-0.953-1.329-2.055-1.709-3.306s-0.57-2.564-0.57-3.939c0-0.899,0.17-1.971,0.51-3.216s0.692-2.35,1.057-3.313
				s0.821-1.883,1.372-2.759c0.55-0.875,1.193-1.646,1.931-2.313c0.736-0.667,1.562-1.196,2.477-1.59
				c0.915-0.394,1.931-0.59,3.048-0.59c0.912,0,1.76,0.146,2.541,0.439c0.782,0.292,1.463,0.703,2.041,1.231
				s1.031,1.167,1.356,1.914c0.326,0.748,0.489,1.585,0.489,2.511c0,0.987-0.33,2.093-0.991,3.318
				c-0.66,1.226-1.431,2.276-2.312,3.151s-1.929,1.655-3.145,2.339c-1.215,0.685-2.532,1.218-3.951,1.6
				c0.245,0.43,0.486,0.788,0.724,1.075c0.236,0.286,0.478,0.509,0.723,0.668c0.245,0.159,0.502,0.271,0.771,0.334
				c0.27,0.064,0.56,0.096,0.87,0.096c0.977,0,2.006-0.192,3.089-0.573c1.082-0.382,2.136-0.86,3.161-1.433s1.993-1.197,2.905-1.874
				c0.911-0.676,1.685-1.316,2.319-1.921l3.149,3.199c-1.433,1.525-2.954,2.876-4.565,4.048c-0.7,0.504-1.452,0.998-2.258,1.484
				s-1.652,0.918-2.539,1.295c-0.888,0.377-1.807,0.679-2.759,0.904C482.411,253.845,481.445,253.958,480.468,253.958z
				 M477.208,242.33c0.588,0,1.229-0.147,1.924-0.441s1.339-0.672,1.936-1.134c0.597-0.461,1.181-1.082,1.752-1.862
				c0.572-0.78,0.858-1.424,0.858-1.934c0-0.716-0.135-1.305-0.404-1.767s-0.601-0.692-0.992-0.692
				c-0.703,0-1.304,0.127-1.802,0.382s-0.915,0.584-1.25,0.991c-0.335,0.406-0.604,0.867-0.809,1.384s-0.441,1.158-0.711,1.922
				s-0.42,1.392-0.453,1.886C477.224,241.558,477.208,241.98,477.208,242.33z"/>
		</g>
		<g>
			<path class="st2" d="M516.318,247.907c-0.375,0.527-0.875,1.145-1.502,1.853s-1.33,1.383-2.111,2.024s-1.62,1.186-2.515,1.63
				c-0.896,0.444-1.791,0.666-2.686,0.666c-1.081,0-1.983-0.342-2.705-1.027c-0.722-0.685-1.346-1.679-1.87-2.984
				c-0.395,0.451-0.878,0.91-1.452,1.377c-0.575,0.468-1.202,0.891-1.883,1.27c-0.681,0.378-1.391,0.688-2.129,0.93
				c-0.738,0.242-1.477,0.362-2.215,0.362c-0.781,0-1.542-0.16-2.282-0.48c-0.741-0.32-1.396-0.779-1.966-1.379
				c-0.57-0.6-1.025-1.33-1.367-2.192s-0.513-1.835-0.513-2.919c0-1.216,0.172-2.465,0.516-3.747
				c0.344-1.281,0.876-2.667,1.597-4.16c0.72-1.492,1.494-2.782,2.32-3.869c0.827-1.086,1.731-2.035,2.714-2.846
				s2.019-1.456,3.107-1.934c1.088-0.478,2.197-0.718,3.327-0.718c0.377,0,0.672,0.074,0.885,0.222s0.389,0.316,0.528,0.506
				c0.139,0.189,0.273,0.374,0.404,0.555c0.131,0.181,0.295,0.312,0.491,0.395s0.397,0.136,0.603,0.16
				c0.204,0.025,0.413,0.037,0.626,0.037c0.18,0,0.364-0.004,0.553-0.012s0.372-0.013,0.553-0.013c0.245,0,0.475,0.025,0.688,0.074
				s0.4,0.156,0.564,0.321c0.163,0.165,0.289,0.395,0.379,0.69c0.089,0.296,0.134,0.7,0.134,1.209c0,0.778-0.081,1.641-0.244,2.589
				c-0.162,0.949-0.349,1.92-0.559,2.916c-0.211,0.995-0.45,2.129-0.719,3.403c-0.269,1.274-0.402,2.347-0.402,3.22
				c0,0.746,0.068,1.329,0.207,1.75s0.436,0.631,0.892,0.631c0.342,0,0.699-0.085,1.074-0.254c0.374-0.169,0.752-0.391,1.135-0.666
				s0.765-0.584,1.147-0.932s0.745-0.707,1.087-1.078c0.797-0.871,1.603-1.855,2.417-2.953L516.318,247.907z M495.373,245.995
				c0,0.419,0.028,0.827,0.086,1.222c0.057,0.394,0.158,0.747,0.306,1.057c0.146,0.311,0.342,0.563,0.587,0.756
				c0.244,0.192,0.554,0.289,0.929,0.289c0.604,0,1.149-0.262,1.639-0.787c0.489-0.524,0.913-1.155,1.271-1.893
				s0.648-1.499,0.868-2.286c0.221-0.787,0.363-1.442,0.429-1.966l1.82-7.937c-0.668,0-1.318,0.166-1.953,0.496
				c-0.635,0.331-1.233,0.779-1.794,1.343c-0.562,0.564-1.079,1.21-1.551,1.936c-0.473,0.727-0.937,1.622-1.392,2.687
				c-0.456,1.065-0.777,2.001-0.964,2.808C495.466,244.527,495.373,245.285,495.373,245.995z"/>
		</g>
		<g>
			<path class="st2" d="M514.367,248.856c0-0.716,0.04-1.551,0.122-2.503c0.081-0.952,0.191-1.957,0.329-3.015
				c0.139-1.058,0.302-2.136,0.488-3.235c0.188-1.099,0.428-2.271,0.721-3.516s0.545-2.283,0.757-3.113
				c0.211-0.83,0.423-1.514,0.635-2.051c0.13-0.358,0.26-0.643,0.391-0.854c0.13-0.211,0.28-0.378,0.452-0.5
				c0.17-0.122,0.382-0.203,0.635-0.244c0.252-0.041,0.564-0.061,0.939-0.061c0.423,0,0.753,0.021,0.988,0.061
				c0.236,0.041,0.411,0.139,0.525,0.293c0.113,0.155,0.184,0.378,0.207,0.671c0.025,0.293,0.037,0.692,0.037,1.196
				c0,0.603-0.041,1.457-0.122,2.563c-0.082,1.107-0.106,2.075-0.073,2.905h0.269c0.325-0.651,0.732-1.505,1.221-2.563
				c0.488-1.058,1.001-1.937,1.538-2.637c0.537-0.7,1.147-1.29,1.831-1.77c0.684-0.48,1.473-0.72,2.368-0.72
				c0.309,0,0.61,0.053,0.903,0.159c0.293,0.106,0.55,0.256,0.769,0.452c0.221,0.195,0.395,0.436,0.525,0.72
				c0.13,0.285,0.195,0.606,0.195,0.964c0,0.277-0.041,0.664-0.122,1.16c-0.082,0.497-0.212,1.144-0.391,1.941
				c-0.18,0.798-0.31,1.453-0.391,1.965c-0.082,0.513-0.122,0.94-0.122,1.282c0,0.586,0.057,1.074,0.171,1.465
				c0.113,0.391,0.265,0.704,0.452,0.94c0.187,0.236,0.398,0.403,0.635,0.5c0.235,0.098,0.483,0.146,0.744,0.146
				c0.732,0,1.489-0.163,2.271-0.488c0.781-0.325,1.497-0.691,2.148-1.099c0.765-0.472,1.514-1.009,2.246-1.611l-0.366,5.713
				c-0.424,0.277-0.903,0.586-1.44,0.928s-1.11,0.664-1.722,0.964c-0.609,0.301-1.244,0.554-1.904,0.757
				c-0.658,0.204-1.33,0.305-2.014,0.305c-1.221,0-2.206-0.248-2.954-0.745c-0.749-0.496-1.343-1.147-1.782-1.953
				s-0.766-1.709-0.977-2.71c-0.212-1.001-0.383-2.014-0.513-3.04h-0.391l-4.37,12.183c-0.229,0.635-0.443,1.159-0.646,1.575
				c-0.204,0.414-0.412,0.753-0.623,1.013c-0.212,0.261-0.439,0.443-0.684,0.55c-0.244,0.105-0.513,0.158-0.806,0.158
				c-0.668,0-1.205-0.143-1.611-0.428c-0.407-0.284-0.72-0.667-0.94-1.146c-0.219-0.48-0.365-1.025-0.439-1.637
				C514.404,250.138,514.367,249.507,514.367,248.856z"/>
		</g>
	</g>
	<g>
		<g>
			<circle class="st0" cx="100.584" cy="239.429" r="6.836"/>
		</g>
	</g>
	<g>
		<g>
			<circle class="st0" cx="564.802" cy="239.429" r="6.836"/>
		</g>
	</g>
</g>
</svg>
